<?xml version="1.0" encoding="utf-8" standalone="no"?>
<!DOCTYPE svg PUBLIC "-//W3C//DTD SVG 1.1//EN"
  "http://www.w3.org/Graphics/SVG/1.1/DTD/svg11.dtd">
<!-- Created with matplotlib (http://matplotlib.org/) -->
<svg height="1440pt" version="1.1" viewBox="0 0 1440 1440" width="1440pt" xmlns="http://www.w3.org/2000/svg" xmlns:xlink="http://www.w3.org/1999/xlink">
 <defs>
  <style type="text/css">
*{stroke-linecap:butt;stroke-linejoin:round;}
  </style>
 </defs>
 <g id="figure_1">
  <g id="patch_1">
   <path d="M 0 1440 
L 1440 1440 
L 1440 0 
L 0 0 
z
" style="fill:#ffffff;"/>
  </g>
  <g id="axes_1">
   <g id="patch_2">
    <path d="M 180 1260 
L 1296 1260 
L 1296 172.8 
L 180 172.8 
z
" style="fill:#ffffff;"/>
   </g>
   <g id="matplotlib.axis_1">
    <g id="xtick_1">
     <g id="line2d_1">
      <defs>
       <path d="M 0 0 
L 0 3.5 
" id="m5f58b11491" style="stroke:#000000;stroke-width:0.8;"/>
      </defs>
      <g>
       <use style="stroke:#000000;stroke-width:0.8;" x="230.727273" xlink:href="#m5f58b11491" y="1260"/>
      </g>
     </g>
     <g id="text_1">
      <!-- 0 -->
      <defs>
       <path d="M 31.78125 66.40625 
Q 24.171875 66.40625 20.328125 58.90625 
Q 16.5 51.421875 16.5 36.375 
Q 16.5 21.390625 20.328125 13.890625 
Q 24.171875 6.390625 31.78125 6.390625 
Q 39.453125 6.390625 43.28125 13.890625 
Q 47.125 21.390625 47.125 36.375 
Q 47.125 51.421875 43.28125 58.90625 
Q 39.453125 66.40625 31.78125 66.40625 
M 31.78125 74.21875 
Q 44.046875 74.21875 50.515625 64.515625 
Q 56.984375 54.828125 56.984375 36.375 
Q 56.984375 17.96875 50.515625 8.265625 
Q 44.046875 -1.421875 31.78125 -1.421875 
Q 19.53125 -1.421875 13.0625 8.265625 
Q 6.59375 17.96875 6.59375 36.375 
Q 6.59375 54.828125 13.0625 64.515625 
Q 19.53125 74.21875 31.78125 74.21875 
" id="DejaVuSans-30"/>
      </defs>
      <g transform="translate(227.546023 1274.598438)scale(0.1 -0.1)">
       <use xlink:href="#DejaVuSans-30"/>
      </g>
     </g>
    </g>
    <g id="xtick_2">
     <g id="line2d_2">
      <g>
       <use style="stroke:#000000;stroke-width:0.8;" x="435.68595" xlink:href="#m5f58b11491" y="1260"/>
      </g>
     </g>
     <g id="text_2">
      <!-- 20 -->
      <defs>
       <path d="M 19.1875 8.296875 
L 53.609375 8.296875 
L 53.609375 0 
L 7.328125 0 
L 7.328125 8.296875 
Q 12.9375 14.109375 22.625 23.890625 
Q 32.328125 33.6875 34.8125 36.53125 
Q 39.546875 41.84375 41.421875 45.53125 
Q 43.3125 49.21875 43.3125 52.78125 
Q 43.3125 58.59375 39.234375 62.25 
Q 35.15625 65.921875 28.609375 65.921875 
Q 23.96875 65.921875 18.8125 64.3125 
Q 13.671875 62.703125 7.8125 59.421875 
L 7.8125 69.390625 
Q 13.765625 71.78125 18.9375 73 
Q 24.125 74.21875 28.421875 74.21875 
Q 39.75 74.21875 46.484375 68.546875 
Q 53.21875 62.890625 53.21875 53.421875 
Q 53.21875 48.921875 51.53125 44.890625 
Q 49.859375 40.875 45.40625 35.40625 
Q 44.1875 33.984375 37.640625 27.21875 
Q 31.109375 20.453125 19.1875 8.296875 
" id="DejaVuSans-32"/>
      </defs>
      <g transform="translate(429.32345 1274.598438)scale(0.1 -0.1)">
       <use xlink:href="#DejaVuSans-32"/>
       <use x="63.623047" xlink:href="#DejaVuSans-30"/>
      </g>
     </g>
    </g>
    <g id="xtick_3">
     <g id="line2d_3">
      <g>
       <use style="stroke:#000000;stroke-width:0.8;" x="640.644628" xlink:href="#m5f58b11491" y="1260"/>
      </g>
     </g>
     <g id="text_3">
      <!-- 40 -->
      <defs>
       <path d="M 37.796875 64.3125 
L 12.890625 25.390625 
L 37.796875 25.390625 
z
M 35.203125 72.90625 
L 47.609375 72.90625 
L 47.609375 25.390625 
L 58.015625 25.390625 
L 58.015625 17.1875 
L 47.609375 17.1875 
L 47.609375 0 
L 37.796875 0 
L 37.796875 17.1875 
L 4.890625 17.1875 
L 4.890625 26.703125 
z
" id="DejaVuSans-34"/>
      </defs>
      <g transform="translate(634.282128 1274.598438)scale(0.1 -0.1)">
       <use xlink:href="#DejaVuSans-34"/>
       <use x="63.623047" xlink:href="#DejaVuSans-30"/>
      </g>
     </g>
    </g>
    <g id="xtick_4">
     <g id="line2d_4">
      <g>
       <use style="stroke:#000000;stroke-width:0.8;" x="845.603306" xlink:href="#m5f58b11491" y="1260"/>
      </g>
     </g>
     <g id="text_4">
      <!-- 60 -->
      <defs>
       <path d="M 33.015625 40.375 
Q 26.375 40.375 22.484375 35.828125 
Q 18.609375 31.296875 18.609375 23.390625 
Q 18.609375 15.53125 22.484375 10.953125 
Q 26.375 6.390625 33.015625 6.390625 
Q 39.65625 6.390625 43.53125 10.953125 
Q 47.40625 15.53125 47.40625 23.390625 
Q 47.40625 31.296875 43.53125 35.828125 
Q 39.65625 40.375 33.015625 40.375 
M 52.59375 71.296875 
L 52.59375 62.3125 
Q 48.875 64.0625 45.09375 64.984375 
Q 41.3125 65.921875 37.59375 65.921875 
Q 27.828125 65.921875 22.671875 59.328125 
Q 17.53125 52.734375 16.796875 39.40625 
Q 19.671875 43.65625 24.015625 45.921875 
Q 28.375 48.1875 33.59375 48.1875 
Q 44.578125 48.1875 50.953125 41.515625 
Q 57.328125 34.859375 57.328125 23.390625 
Q 57.328125 12.15625 50.6875 5.359375 
Q 44.046875 -1.421875 33.015625 -1.421875 
Q 20.359375 -1.421875 13.671875 8.265625 
Q 6.984375 17.96875 6.984375 36.375 
Q 6.984375 53.65625 15.1875 63.9375 
Q 23.390625 74.21875 37.203125 74.21875 
Q 40.921875 74.21875 44.703125 73.484375 
Q 48.484375 72.75 52.59375 71.296875 
" id="DejaVuSans-36"/>
      </defs>
      <g transform="translate(839.240806 1274.598438)scale(0.1 -0.1)">
       <use xlink:href="#DejaVuSans-36"/>
       <use x="63.623047" xlink:href="#DejaVuSans-30"/>
      </g>
     </g>
    </g>
    <g id="xtick_5">
     <g id="line2d_5">
      <g>
       <use style="stroke:#000000;stroke-width:0.8;" x="1050.561983" xlink:href="#m5f58b11491" y="1260"/>
      </g>
     </g>
     <g id="text_5">
      <!-- 80 -->
      <defs>
       <path d="M 31.78125 34.625 
Q 24.75 34.625 20.71875 30.859375 
Q 16.703125 27.09375 16.703125 20.515625 
Q 16.703125 13.921875 20.71875 10.15625 
Q 24.75 6.390625 31.78125 6.390625 
Q 38.8125 6.390625 42.859375 10.171875 
Q 46.921875 13.96875 46.921875 20.515625 
Q 46.921875 27.09375 42.890625 30.859375 
Q 38.875 34.625 31.78125 34.625 
M 21.921875 38.8125 
Q 15.578125 40.375 12.03125 44.71875 
Q 8.5 49.078125 8.5 55.328125 
Q 8.5 64.0625 14.71875 69.140625 
Q 20.953125 74.21875 31.78125 74.21875 
Q 42.671875 74.21875 48.875 69.140625 
Q 55.078125 64.0625 55.078125 55.328125 
Q 55.078125 49.078125 51.53125 44.71875 
Q 48 40.375 41.703125 38.8125 
Q 48.828125 37.15625 52.796875 32.3125 
Q 56.78125 27.484375 56.78125 20.515625 
Q 56.78125 9.90625 50.3125 4.234375 
Q 43.84375 -1.421875 31.78125 -1.421875 
Q 19.734375 -1.421875 13.25 4.234375 
Q 6.78125 9.90625 6.78125 20.515625 
Q 6.78125 27.484375 10.78125 32.3125 
Q 14.796875 37.15625 21.921875 38.8125 
M 18.3125 54.390625 
Q 18.3125 48.734375 21.84375 45.5625 
Q 25.390625 42.390625 31.78125 42.390625 
Q 38.140625 42.390625 41.71875 45.5625 
Q 45.3125 48.734375 45.3125 54.390625 
Q 45.3125 60.0625 41.71875 63.234375 
Q 38.140625 66.40625 31.78125 66.40625 
Q 25.390625 66.40625 21.84375 63.234375 
Q 18.3125 60.0625 18.3125 54.390625 
" id="DejaVuSans-38"/>
      </defs>
      <g transform="translate(1044.199483 1274.598438)scale(0.1 -0.1)">
       <use xlink:href="#DejaVuSans-38"/>
       <use x="63.623047" xlink:href="#DejaVuSans-30"/>
      </g>
     </g>
    </g>
    <g id="xtick_6">
     <g id="line2d_6">
      <g>
       <use style="stroke:#000000;stroke-width:0.8;" x="1255.520661" xlink:href="#m5f58b11491" y="1260"/>
      </g>
     </g>
     <g id="text_6">
      <!-- 100 -->
      <defs>
       <path d="M 12.40625 8.296875 
L 28.515625 8.296875 
L 28.515625 63.921875 
L 10.984375 60.40625 
L 10.984375 69.390625 
L 28.421875 72.90625 
L 38.28125 72.90625 
L 38.28125 8.296875 
L 54.390625 8.296875 
L 54.390625 0 
L 12.40625 0 
z
" id="DejaVuSans-31"/>
      </defs>
      <g transform="translate(1245.976911 1274.598438)scale(0.1 -0.1)">
       <use xlink:href="#DejaVuSans-31"/>
       <use x="63.623047" xlink:href="#DejaVuSans-30"/>
       <use x="127.246094" xlink:href="#DejaVuSans-30"/>
      </g>
     </g>
    </g>
   </g>
   <g id="matplotlib.axis_2">
    <g id="ytick_1">
     <g id="line2d_7">
      <defs>
       <path d="M 0 0 
L -3.5 0 
" id="m5572e32ea2" style="stroke:#000000;stroke-width:0.8;"/>
      </defs>
      <g>
       <use style="stroke:#000000;stroke-width:0.8;" x="180" xlink:href="#m5572e32ea2" y="1155.453941"/>
      </g>
     </g>
     <g id="text_7">
      <!-- 0.0174 -->
      <defs>
       <path d="M 10.6875 12.40625 
L 21 12.40625 
L 21 0 
L 10.6875 0 
z
" id="DejaVuSans-2e"/>
       <path d="M 8.203125 72.90625 
L 55.078125 72.90625 
L 55.078125 68.703125 
L 28.609375 0 
L 18.3125 0 
L 43.21875 64.59375 
L 8.203125 64.59375 
z
" id="DejaVuSans-37"/>
      </defs>
      <g transform="translate(138.009375 1159.25316)scale(0.1 -0.1)">
       <use xlink:href="#DejaVuSans-30"/>
       <use x="63.623047" xlink:href="#DejaVuSans-2e"/>
       <use x="95.410156" xlink:href="#DejaVuSans-30"/>
       <use x="159.033203" xlink:href="#DejaVuSans-31"/>
       <use x="222.65625" xlink:href="#DejaVuSans-37"/>
       <use x="286.279297" xlink:href="#DejaVuSans-34"/>
      </g>
     </g>
    </g>
    <g id="ytick_2">
     <g id="line2d_8">
      <g>
       <use style="stroke:#000000;stroke-width:0.8;" x="180" xlink:href="#m5572e32ea2" y="1011.6156"/>
      </g>
     </g>
     <g id="text_8">
      <!-- 0.0176 -->
      <g transform="translate(138.009375 1015.414818)scale(0.1 -0.1)">
       <use xlink:href="#DejaVuSans-30"/>
       <use x="63.623047" xlink:href="#DejaVuSans-2e"/>
       <use x="95.410156" xlink:href="#DejaVuSans-30"/>
       <use x="159.033203" xlink:href="#DejaVuSans-31"/>
       <use x="222.65625" xlink:href="#DejaVuSans-37"/>
       <use x="286.279297" xlink:href="#DejaVuSans-36"/>
      </g>
     </g>
    </g>
    <g id="ytick_3">
     <g id="line2d_9">
      <g>
       <use style="stroke:#000000;stroke-width:0.8;" x="180" xlink:href="#m5572e32ea2" y="867.777258"/>
      </g>
     </g>
     <g id="text_9">
      <!-- 0.0178 -->
      <g transform="translate(138.009375 871.576477)scale(0.1 -0.1)">
       <use xlink:href="#DejaVuSans-30"/>
       <use x="63.623047" xlink:href="#DejaVuSans-2e"/>
       <use x="95.410156" xlink:href="#DejaVuSans-30"/>
       <use x="159.033203" xlink:href="#DejaVuSans-31"/>
       <use x="222.65625" xlink:href="#DejaVuSans-37"/>
       <use x="286.279297" xlink:href="#DejaVuSans-38"/>
      </g>
     </g>
    </g>
    <g id="ytick_4">
     <g id="line2d_10">
      <g>
       <use style="stroke:#000000;stroke-width:0.8;" x="180" xlink:href="#m5572e32ea2" y="723.938917"/>
      </g>
     </g>
     <g id="text_10">
      <!-- 0.0180 -->
      <g transform="translate(138.009375 727.738136)scale(0.1 -0.1)">
       <use xlink:href="#DejaVuSans-30"/>
       <use x="63.623047" xlink:href="#DejaVuSans-2e"/>
       <use x="95.410156" xlink:href="#DejaVuSans-30"/>
       <use x="159.033203" xlink:href="#DejaVuSans-31"/>
       <use x="222.65625" xlink:href="#DejaVuSans-38"/>
       <use x="286.279297" xlink:href="#DejaVuSans-30"/>
      </g>
     </g>
    </g>
    <g id="ytick_5">
     <g id="line2d_11">
      <g>
       <use style="stroke:#000000;stroke-width:0.8;" x="180" xlink:href="#m5572e32ea2" y="580.100576"/>
      </g>
     </g>
     <g id="text_11">
      <!-- 0.0182 -->
      <g transform="translate(138.009375 583.899795)scale(0.1 -0.1)">
       <use xlink:href="#DejaVuSans-30"/>
       <use x="63.623047" xlink:href="#DejaVuSans-2e"/>
       <use x="95.410156" xlink:href="#DejaVuSans-30"/>
       <use x="159.033203" xlink:href="#DejaVuSans-31"/>
       <use x="222.65625" xlink:href="#DejaVuSans-38"/>
       <use x="286.279297" xlink:href="#DejaVuSans-32"/>
      </g>
     </g>
    </g>
    <g id="ytick_6">
     <g id="line2d_12">
      <g>
       <use style="stroke:#000000;stroke-width:0.8;" x="180" xlink:href="#m5572e32ea2" y="436.262235"/>
      </g>
     </g>
     <g id="text_12">
      <!-- 0.0184 -->
      <g transform="translate(138.009375 440.061454)scale(0.1 -0.1)">
       <use xlink:href="#DejaVuSans-30"/>
       <use x="63.623047" xlink:href="#DejaVuSans-2e"/>
       <use x="95.410156" xlink:href="#DejaVuSans-30"/>
       <use x="159.033203" xlink:href="#DejaVuSans-31"/>
       <use x="222.65625" xlink:href="#DejaVuSans-38"/>
       <use x="286.279297" xlink:href="#DejaVuSans-34"/>
      </g>
     </g>
    </g>
    <g id="ytick_7">
     <g id="line2d_13">
      <g>
       <use style="stroke:#000000;stroke-width:0.8;" x="180" xlink:href="#m5572e32ea2" y="292.423894"/>
      </g>
     </g>
     <g id="text_13">
      <!-- 0.0186 -->
      <g transform="translate(138.009375 296.223113)scale(0.1 -0.1)">
       <use xlink:href="#DejaVuSans-30"/>
       <use x="63.623047" xlink:href="#DejaVuSans-2e"/>
       <use x="95.410156" xlink:href="#DejaVuSans-30"/>
       <use x="159.033203" xlink:href="#DejaVuSans-31"/>
       <use x="222.65625" xlink:href="#DejaVuSans-38"/>
       <use x="286.279297" xlink:href="#DejaVuSans-36"/>
      </g>
     </g>
    </g>
   </g>
   <g id="line2d_14">
    <path clip-path="url(#p14ddeda548)" d="M 230.727273 236.808506 
L 240.975207 380.811846 
L 251.22314 449.719417 
L 261.471074 502.046715 
L 271.719008 552.408828 
L 281.966942 604.29154 
L 292.214876 656.123603 
L 302.46281 704.429361 
L 312.710744 746.344325 
L 322.958678 780.897158 
L 333.206612 808.759804 
L 343.454545 831.287409 
L 353.702479 849.783343 
L 363.950413 865.230201 
L 374.198347 878.289796 
L 384.446281 889.416846 
L 394.694215 898.933254 
L 404.942149 907.085512 
L 415.190083 914.077342 
L 425.438017 920.0787 
L 435.68595 925.237032 
L 445.933884 929.679523 
L 456.181818 933.51535 
L 466.429752 936.84131 
L 476.677686 939.739565 
L 486.92562 942.282151 
L 497.173554 944.530972 
L 507.421488 946.542305 
L 517.669421 948.361171 
L 527.917355 950.033718 
L 538.165289 951.595962 
L 548.413223 953.08167 
L 558.661157 954.523482 
L 568.909091 955.951787 
L 579.157025 957.394724 
L 589.404959 958.880432 
L 599.652893 960.437048 
L 609.900826 962.093837 
L 620.14876 963.880063 
L 630.396694 965.828366 
L 640.644628 967.971387 
L 650.892562 970.344017 
L 661.140496 972.983399 
L 671.38843 975.927802 
L 681.636364 979.215493 
L 691.884298 982.886991 
L 702.132231 986.978315 
L 712.380165 991.522104 
L 722.628099 996.545372 
L 732.876033 1002.063875 
L 743.123967 1008.085493 
L 753.371901 1014.595594 
L 763.619835 1021.566039 
L 773.867769 1028.947305 
L 784.115702 1036.671859 
L 794.363636 1044.65191 
L 804.61157 1052.787285 
L 814.859504 1060.967681 
L 825.107438 1069.082797 
L 835.355372 1077.024579 
L 845.603306 1084.696233 
L 855.85124 1092.020097 
L 866.099174 1098.936516 
L 876.347107 1105.407223 
L 886.595041 1111.411958 
L 896.842975 1116.952972 
L 907.090909 1122.044898 
L 917.338843 1126.715873 
L 927.586777 1131.000788 
L 937.834711 1134.939039 
L 948.082645 1138.57227 
L 958.330579 1141.942125 
L 968.578512 1145.087998 
L 978.826446 1148.043656 
L 989.07438 1150.845115 
L 999.322314 1153.517138 
L 1009.570248 1156.086737 
L 1019.818182 1158.575297 
L 1030.066116 1161.000828 
L 1040.31405 1163.376834 
L 1050.561983 1165.719075 
L 1060.809917 1168.035428 
L 1071.057851 1170.336024 
L 1081.305785 1172.62649 
L 1091.553719 1174.914705 
L 1101.801653 1177.204045 
L 1112.049587 1179.497888 
L 1122.297521 1181.80186 
L 1132.545455 1184.114837 
L 1142.793388 1186.44132 
L 1153.041322 1188.78131 
L 1163.289256 1191.137057 
L 1173.53719 1193.508561 
L 1183.785124 1195.895823 
L 1194.033058 1198.301094 
L 1204.280992 1200.723248 
L 1214.528926 1203.162284 
L 1224.77686 1205.618204 
L 1235.024793 1208.092132 
L 1245.272727 1210.581818 
" style="fill:none;stroke:#ff0000;stroke-linecap:square;stroke-width:1.5;"/>
   </g>
   <g id="line2d_15">
    <path clip-path="url(#p14ddeda548)" d="M 230.727273 222.218182 
L 240.975207 354.747806 
L 251.22314 423.237803 
L 261.471074 472.34832 
L 271.719008 517.352881 
L 281.966942 562.820037 
L 292.214876 608.248925 
L 302.46281 650.858345 
L 312.710744 687.846838 
L 322.958678 717.889647 
L 333.206612 741.286166 
L 343.454545 759.209203 
L 353.702479 772.922734 
L 363.950413 783.41048 
L 374.198347 791.328626 
L 384.446281 797.106003 
L 394.694215 801.042003 
L 404.942149 803.36736 
L 415.190083 804.279045 
L 425.438017 803.953765 
L 435.68595 802.550221 
L 445.933884 800.211357 
L 456.181818 797.063233 
L 466.429752 793.218401 
L 476.677686 788.769157 
L 486.92562 783.795413 
L 497.173554 778.361325 
L 507.421488 772.516416 
L 517.669421 766.301206 
L 527.917355 759.747209 
L 538.165289 752.880313 
L 548.413223 745.719653 
L 558.661157 738.287738 
L 568.909091 730.601452 
L 579.157025 722.684431 
L 589.404959 714.559186 
L 599.652893 706.252729 
L 609.900826 697.797702 
L 620.14876 689.230121 
L 630.396694 680.590506 
L 640.644628 671.923878 
L 650.892562 663.278636 
L 661.140496 654.705427 
L 671.38843 646.254902 
L 681.636364 637.969831 
L 691.884298 629.886231 
L 702.132231 622.017608 
L 712.380165 614.344828 
L 722.628099 606.793607 
L 732.876033 599.217623 
L 743.123967 591.373762 
L 753.371901 582.902977 
L 763.619835 573.359557 
L 773.867769 562.267399 
L 784.115702 549.260703 
L 794.363636 534.256182 
L 804.61157 517.588118 
L 814.859504 500.01062 
L 825.107438 482.527668 
L 835.355372 466.120729 
L 845.603306 451.529279 
L 855.85124 439.165265 
L 866.099174 429.149119 
L 876.347107 421.418937 
L 886.595041 415.812642 
L 896.842975 412.101749 
L 907.090909 409.965482 
L 917.338843 408.916482 
L 927.586777 408.237784 
L 937.834711 407.010949 
L 948.082645 404.283775 
L 958.330579 399.344923 
L 968.578512 391.9479 
L 978.826446 382.348202 
L 989.07438 371.155871 
L 999.322314 359.103631 
L 1009.570248 346.867928 
L 1019.818182 334.967635 
L 1030.066116 323.747165 
L 1040.31405 313.394484 
L 1050.561983 303.985003 
L 1060.809917 295.515344 
L 1071.057851 287.93936 
L 1081.305785 281.186143 
L 1091.553719 275.176906 
L 1101.801653 269.831735 
L 1112.049587 265.07522 
L 1122.297521 260.837576 
L 1132.545455 257.058026 
L 1142.793388 253.681418 
L 1153.041322 250.660479 
L 1163.289256 247.951314 
L 1173.53719 245.517905 
L 1183.785124 243.329862 
L 1194.033058 241.357923 
L 1204.280992 239.578451 
L 1214.528926 237.970059 
L 1224.77686 236.513616 
L 1235.024793 235.195613 
L 1245.272727 233.998043 
" style="fill:none;stroke:#1f77b4;stroke-linecap:square;stroke-width:1.5;"/>
   </g>
   <g id="patch_3">
    <path d="M 180 1260 
L 180 172.8 
" style="fill:none;stroke:#000000;stroke-linecap:square;stroke-linejoin:miter;stroke-width:0.8;"/>
   </g>
   <g id="patch_4">
    <path d="M 1296 1260 
L 1296 172.8 
" style="fill:none;stroke:#000000;stroke-linecap:square;stroke-linejoin:miter;stroke-width:0.8;"/>
   </g>
   <g id="patch_5">
    <path d="M 180 1260 
L 1296 1260 
" style="fill:none;stroke:#000000;stroke-linecap:square;stroke-linejoin:miter;stroke-width:0.8;"/>
   </g>
   <g id="patch_6">
    <path d="M 180 172.8 
L 1296 172.8 
" style="fill:none;stroke:#000000;stroke-linecap:square;stroke-linejoin:miter;stroke-width:0.8;"/>
   </g>
  </g>
 </g>
 <defs>
  <clipPath id="p14ddeda548">
   <rect height="1087.2" width="1116" x="180" y="172.8"/>
  </clipPath>
 </defs>
</svg>
