<?xml version="1.0" encoding="utf-8" standalone="no"?>
<!DOCTYPE svg PUBLIC "-//W3C//DTD SVG 1.1//EN"
  "http://www.w3.org/Graphics/SVG/1.1/DTD/svg11.dtd">
<!-- Created with matplotlib (http://matplotlib.org/) -->
<svg height="288pt" version="1.1" viewBox="0 0 432 288" width="432pt" xmlns="http://www.w3.org/2000/svg" xmlns:xlink="http://www.w3.org/1999/xlink">
 <defs>
  <style type="text/css">
*{stroke-linecap:butt;stroke-linejoin:round;}
  </style>
 </defs>
 <g id="figure_1">
  <g id="patch_1">
   <path d="M 0 288 
L 432 288 
L 432 0 
L 0 0 
z
" style="fill:#ffffff;"/>
  </g>
  <g id="axes_1">
   <g id="patch_2">
    <path d="M 54 252 
L 388.8 252 
L 388.8 34.56 
L 54 34.56 
z
" style="fill:#ffffff;"/>
   </g>
   <g id="matplotlib.axis_1">
    <g id="xtick_1">
     <g id="line2d_1">
      <defs>
       <path d="M 0 0 
L 0 3.5 
" id="m8f47c4fcc9" style="stroke:#000000;stroke-width:0.8;"/>
      </defs>
      <g>
       <use style="stroke:#000000;stroke-width:0.8;" x="69.218182" xlink:href="#m8f47c4fcc9" y="252"/>
      </g>
     </g>
     <g id="text_1">
      <!-- 0 -->
      <defs>
       <path d="M 31.78125 66.40625 
Q 24.171875 66.40625 20.328125 58.90625 
Q 16.5 51.421875 16.5 36.375 
Q 16.5 21.390625 20.328125 13.890625 
Q 24.171875 6.390625 31.78125 6.390625 
Q 39.453125 6.390625 43.28125 13.890625 
Q 47.125 21.390625 47.125 36.375 
Q 47.125 51.421875 43.28125 58.90625 
Q 39.453125 66.40625 31.78125 66.40625 
M 31.78125 74.21875 
Q 44.046875 74.21875 50.515625 64.515625 
Q 56.984375 54.828125 56.984375 36.375 
Q 56.984375 17.96875 50.515625 8.265625 
Q 44.046875 -1.421875 31.78125 -1.421875 
Q 19.53125 -1.421875 13.0625 8.265625 
Q 6.59375 17.96875 6.59375 36.375 
Q 6.59375 54.828125 13.0625 64.515625 
Q 19.53125 74.21875 31.78125 74.21875 
" id="DejaVuSans-30"/>
      </defs>
      <g transform="translate(66.036932 266.598437)scale(0.1 -0.1)">
       <use xlink:href="#DejaVuSans-30"/>
      </g>
     </g>
    </g>
    <g id="xtick_2">
     <g id="line2d_2">
      <g>
       <use style="stroke:#000000;stroke-width:0.8;" x="130.705785" xlink:href="#m8f47c4fcc9" y="252"/>
      </g>
     </g>
     <g id="text_2">
      <!-- 20 -->
      <defs>
       <path d="M 19.1875 8.296875 
L 53.609375 8.296875 
L 53.609375 0 
L 7.328125 0 
L 7.328125 8.296875 
Q 12.9375 14.109375 22.625 23.890625 
Q 32.328125 33.6875 34.8125 36.53125 
Q 39.546875 41.84375 41.421875 45.53125 
Q 43.3125 49.21875 43.3125 52.78125 
Q 43.3125 58.59375 39.234375 62.25 
Q 35.15625 65.921875 28.609375 65.921875 
Q 23.96875 65.921875 18.8125 64.3125 
Q 13.671875 62.703125 7.8125 59.421875 
L 7.8125 69.390625 
Q 13.765625 71.78125 18.9375 73 
Q 24.125 74.21875 28.421875 74.21875 
Q 39.75 74.21875 46.484375 68.546875 
Q 53.21875 62.890625 53.21875 53.421875 
Q 53.21875 48.921875 51.53125 44.890625 
Q 49.859375 40.875 45.40625 35.40625 
Q 44.1875 33.984375 37.640625 27.21875 
Q 31.109375 20.453125 19.1875 8.296875 
" id="DejaVuSans-32"/>
      </defs>
      <g transform="translate(124.343285 266.598437)scale(0.1 -0.1)">
       <use xlink:href="#DejaVuSans-32"/>
       <use x="63.623047" xlink:href="#DejaVuSans-30"/>
      </g>
     </g>
    </g>
    <g id="xtick_3">
     <g id="line2d_3">
      <g>
       <use style="stroke:#000000;stroke-width:0.8;" x="192.193388" xlink:href="#m8f47c4fcc9" y="252"/>
      </g>
     </g>
     <g id="text_3">
      <!-- 40 -->
      <defs>
       <path d="M 37.796875 64.3125 
L 12.890625 25.390625 
L 37.796875 25.390625 
z
M 35.203125 72.90625 
L 47.609375 72.90625 
L 47.609375 25.390625 
L 58.015625 25.390625 
L 58.015625 17.1875 
L 47.609375 17.1875 
L 47.609375 0 
L 37.796875 0 
L 37.796875 17.1875 
L 4.890625 17.1875 
L 4.890625 26.703125 
z
" id="DejaVuSans-34"/>
      </defs>
      <g transform="translate(185.830888 266.598437)scale(0.1 -0.1)">
       <use xlink:href="#DejaVuSans-34"/>
       <use x="63.623047" xlink:href="#DejaVuSans-30"/>
      </g>
     </g>
    </g>
    <g id="xtick_4">
     <g id="line2d_4">
      <g>
       <use style="stroke:#000000;stroke-width:0.8;" x="253.680992" xlink:href="#m8f47c4fcc9" y="252"/>
      </g>
     </g>
     <g id="text_4">
      <!-- 60 -->
      <defs>
       <path d="M 33.015625 40.375 
Q 26.375 40.375 22.484375 35.828125 
Q 18.609375 31.296875 18.609375 23.390625 
Q 18.609375 15.53125 22.484375 10.953125 
Q 26.375 6.390625 33.015625 6.390625 
Q 39.65625 6.390625 43.53125 10.953125 
Q 47.40625 15.53125 47.40625 23.390625 
Q 47.40625 31.296875 43.53125 35.828125 
Q 39.65625 40.375 33.015625 40.375 
M 52.59375 71.296875 
L 52.59375 62.3125 
Q 48.875 64.0625 45.09375 64.984375 
Q 41.3125 65.921875 37.59375 65.921875 
Q 27.828125 65.921875 22.671875 59.328125 
Q 17.53125 52.734375 16.796875 39.40625 
Q 19.671875 43.65625 24.015625 45.921875 
Q 28.375 48.1875 33.59375 48.1875 
Q 44.578125 48.1875 50.953125 41.515625 
Q 57.328125 34.859375 57.328125 23.390625 
Q 57.328125 12.15625 50.6875 5.359375 
Q 44.046875 -1.421875 33.015625 -1.421875 
Q 20.359375 -1.421875 13.671875 8.265625 
Q 6.984375 17.96875 6.984375 36.375 
Q 6.984375 53.65625 15.1875 63.9375 
Q 23.390625 74.21875 37.203125 74.21875 
Q 40.921875 74.21875 44.703125 73.484375 
Q 48.484375 72.75 52.59375 71.296875 
" id="DejaVuSans-36"/>
      </defs>
      <g transform="translate(247.318492 266.598437)scale(0.1 -0.1)">
       <use xlink:href="#DejaVuSans-36"/>
       <use x="63.623047" xlink:href="#DejaVuSans-30"/>
      </g>
     </g>
    </g>
    <g id="xtick_5">
     <g id="line2d_5">
      <g>
       <use style="stroke:#000000;stroke-width:0.8;" x="315.168595" xlink:href="#m8f47c4fcc9" y="252"/>
      </g>
     </g>
     <g id="text_5">
      <!-- 80 -->
      <defs>
       <path d="M 31.78125 34.625 
Q 24.75 34.625 20.71875 30.859375 
Q 16.703125 27.09375 16.703125 20.515625 
Q 16.703125 13.921875 20.71875 10.15625 
Q 24.75 6.390625 31.78125 6.390625 
Q 38.8125 6.390625 42.859375 10.171875 
Q 46.921875 13.96875 46.921875 20.515625 
Q 46.921875 27.09375 42.890625 30.859375 
Q 38.875 34.625 31.78125 34.625 
M 21.921875 38.8125 
Q 15.578125 40.375 12.03125 44.71875 
Q 8.5 49.078125 8.5 55.328125 
Q 8.5 64.0625 14.71875 69.140625 
Q 20.953125 74.21875 31.78125 74.21875 
Q 42.671875 74.21875 48.875 69.140625 
Q 55.078125 64.0625 55.078125 55.328125 
Q 55.078125 49.078125 51.53125 44.71875 
Q 48 40.375 41.703125 38.8125 
Q 48.828125 37.15625 52.796875 32.3125 
Q 56.78125 27.484375 56.78125 20.515625 
Q 56.78125 9.90625 50.3125 4.234375 
Q 43.84375 -1.421875 31.78125 -1.421875 
Q 19.734375 -1.421875 13.25 4.234375 
Q 6.78125 9.90625 6.78125 20.515625 
Q 6.78125 27.484375 10.78125 32.3125 
Q 14.796875 37.15625 21.921875 38.8125 
M 18.3125 54.390625 
Q 18.3125 48.734375 21.84375 45.5625 
Q 25.390625 42.390625 31.78125 42.390625 
Q 38.140625 42.390625 41.71875 45.5625 
Q 45.3125 48.734375 45.3125 54.390625 
Q 45.3125 60.0625 41.71875 63.234375 
Q 38.140625 66.40625 31.78125 66.40625 
Q 25.390625 66.40625 21.84375 63.234375 
Q 18.3125 60.0625 18.3125 54.390625 
" id="DejaVuSans-38"/>
      </defs>
      <g transform="translate(308.806095 266.598437)scale(0.1 -0.1)">
       <use xlink:href="#DejaVuSans-38"/>
       <use x="63.623047" xlink:href="#DejaVuSans-30"/>
      </g>
     </g>
    </g>
    <g id="xtick_6">
     <g id="line2d_6">
      <g>
       <use style="stroke:#000000;stroke-width:0.8;" x="376.656198" xlink:href="#m8f47c4fcc9" y="252"/>
      </g>
     </g>
     <g id="text_6">
      <!-- 100 -->
      <defs>
       <path d="M 12.40625 8.296875 
L 28.515625 8.296875 
L 28.515625 63.921875 
L 10.984375 60.40625 
L 10.984375 69.390625 
L 28.421875 72.90625 
L 38.28125 72.90625 
L 38.28125 8.296875 
L 54.390625 8.296875 
L 54.390625 0 
L 12.40625 0 
z
" id="DejaVuSans-31"/>
      </defs>
      <g transform="translate(367.112448 266.598437)scale(0.1 -0.1)">
       <use xlink:href="#DejaVuSans-31"/>
       <use x="63.623047" xlink:href="#DejaVuSans-30"/>
       <use x="127.246094" xlink:href="#DejaVuSans-30"/>
      </g>
     </g>
    </g>
   </g>
   <g id="matplotlib.axis_2">
    <g id="ytick_1">
     <g id="line2d_7">
      <defs>
       <path d="M 0 0 
L -3.5 0 
" id="m0a5050c65e" style="stroke:#000000;stroke-width:0.8;"/>
      </defs>
      <g>
       <use style="stroke:#000000;stroke-width:0.8;" x="54" xlink:href="#m0a5050c65e" y="234.548267"/>
      </g>
     </g>
     <g id="text_7">
      <!-- 0.0174 -->
      <defs>
       <path d="M 10.6875 12.40625 
L 21 12.40625 
L 21 0 
L 10.6875 0 
z
" id="DejaVuSans-2e"/>
       <path d="M 8.203125 72.90625 
L 55.078125 72.90625 
L 55.078125 68.703125 
L 28.609375 0 
L 18.3125 0 
L 43.21875 64.59375 
L 8.203125 64.59375 
z
" id="DejaVuSans-37"/>
      </defs>
      <g transform="translate(12.009375 238.347486)scale(0.1 -0.1)">
       <use xlink:href="#DejaVuSans-30"/>
       <use x="63.623047" xlink:href="#DejaVuSans-2e"/>
       <use x="95.410156" xlink:href="#DejaVuSans-30"/>
       <use x="159.033203" xlink:href="#DejaVuSans-31"/>
       <use x="222.65625" xlink:href="#DejaVuSans-37"/>
       <use x="286.279297" xlink:href="#DejaVuSans-34"/>
      </g>
     </g>
    </g>
    <g id="ytick_2">
     <g id="line2d_8">
      <g>
       <use style="stroke:#000000;stroke-width:0.8;" x="54" xlink:href="#m0a5050c65e" y="206.015337"/>
      </g>
     </g>
     <g id="text_8">
      <!-- 0.0176 -->
      <g transform="translate(12.009375 209.814556)scale(0.1 -0.1)">
       <use xlink:href="#DejaVuSans-30"/>
       <use x="63.623047" xlink:href="#DejaVuSans-2e"/>
       <use x="95.410156" xlink:href="#DejaVuSans-30"/>
       <use x="159.033203" xlink:href="#DejaVuSans-31"/>
       <use x="222.65625" xlink:href="#DejaVuSans-37"/>
       <use x="286.279297" xlink:href="#DejaVuSans-36"/>
      </g>
     </g>
    </g>
    <g id="ytick_3">
     <g id="line2d_9">
      <g>
       <use style="stroke:#000000;stroke-width:0.8;" x="54" xlink:href="#m0a5050c65e" y="177.482407"/>
      </g>
     </g>
     <g id="text_9">
      <!-- 0.0178 -->
      <g transform="translate(12.009375 181.281626)scale(0.1 -0.1)">
       <use xlink:href="#DejaVuSans-30"/>
       <use x="63.623047" xlink:href="#DejaVuSans-2e"/>
       <use x="95.410156" xlink:href="#DejaVuSans-30"/>
       <use x="159.033203" xlink:href="#DejaVuSans-31"/>
       <use x="222.65625" xlink:href="#DejaVuSans-37"/>
       <use x="286.279297" xlink:href="#DejaVuSans-38"/>
      </g>
     </g>
    </g>
    <g id="ytick_4">
     <g id="line2d_10">
      <g>
       <use style="stroke:#000000;stroke-width:0.8;" x="54" xlink:href="#m0a5050c65e" y="148.949477"/>
      </g>
     </g>
     <g id="text_10">
      <!-- 0.0180 -->
      <g transform="translate(12.009375 152.748696)scale(0.1 -0.1)">
       <use xlink:href="#DejaVuSans-30"/>
       <use x="63.623047" xlink:href="#DejaVuSans-2e"/>
       <use x="95.410156" xlink:href="#DejaVuSans-30"/>
       <use x="159.033203" xlink:href="#DejaVuSans-31"/>
       <use x="222.65625" xlink:href="#DejaVuSans-38"/>
       <use x="286.279297" xlink:href="#DejaVuSans-30"/>
      </g>
     </g>
    </g>
    <g id="ytick_5">
     <g id="line2d_11">
      <g>
       <use style="stroke:#000000;stroke-width:0.8;" x="54" xlink:href="#m0a5050c65e" y="120.416547"/>
      </g>
     </g>
     <g id="text_11">
      <!-- 0.0182 -->
      <g transform="translate(12.009375 124.215766)scale(0.1 -0.1)">
       <use xlink:href="#DejaVuSans-30"/>
       <use x="63.623047" xlink:href="#DejaVuSans-2e"/>
       <use x="95.410156" xlink:href="#DejaVuSans-30"/>
       <use x="159.033203" xlink:href="#DejaVuSans-31"/>
       <use x="222.65625" xlink:href="#DejaVuSans-38"/>
       <use x="286.279297" xlink:href="#DejaVuSans-32"/>
      </g>
     </g>
    </g>
    <g id="ytick_6">
     <g id="line2d_12">
      <g>
       <use style="stroke:#000000;stroke-width:0.8;" x="54" xlink:href="#m0a5050c65e" y="91.883617"/>
      </g>
     </g>
     <g id="text_12">
      <!-- 0.0184 -->
      <g transform="translate(12.009375 95.682836)scale(0.1 -0.1)">
       <use xlink:href="#DejaVuSans-30"/>
       <use x="63.623047" xlink:href="#DejaVuSans-2e"/>
       <use x="95.410156" xlink:href="#DejaVuSans-30"/>
       <use x="159.033203" xlink:href="#DejaVuSans-31"/>
       <use x="222.65625" xlink:href="#DejaVuSans-38"/>
       <use x="286.279297" xlink:href="#DejaVuSans-34"/>
      </g>
     </g>
    </g>
    <g id="ytick_7">
     <g id="line2d_13">
      <g>
       <use style="stroke:#000000;stroke-width:0.8;" x="54" xlink:href="#m0a5050c65e" y="63.350687"/>
      </g>
     </g>
     <g id="text_13">
      <!-- 0.0186 -->
      <g transform="translate(12.009375 67.149906)scale(0.1 -0.1)">
       <use xlink:href="#DejaVuSans-30"/>
       <use x="63.623047" xlink:href="#DejaVuSans-2e"/>
       <use x="95.410156" xlink:href="#DejaVuSans-30"/>
       <use x="159.033203" xlink:href="#DejaVuSans-31"/>
       <use x="222.65625" xlink:href="#DejaVuSans-38"/>
       <use x="286.279297" xlink:href="#DejaVuSans-36"/>
      </g>
     </g>
    </g>
    <g id="ytick_8">
     <g id="line2d_14">
      <g>
       <use style="stroke:#000000;stroke-width:0.8;" x="54" xlink:href="#m0a5050c65e" y="34.817757"/>
      </g>
     </g>
     <g id="text_14">
      <!-- 0.0188 -->
      <g transform="translate(12.009375 38.616976)scale(0.1 -0.1)">
       <use xlink:href="#DejaVuSans-30"/>
       <use x="63.623047" xlink:href="#DejaVuSans-2e"/>
       <use x="95.410156" xlink:href="#DejaVuSans-30"/>
       <use x="159.033203" xlink:href="#DejaVuSans-31"/>
       <use x="222.65625" xlink:href="#DejaVuSans-38"/>
       <use x="286.279297" xlink:href="#DejaVuSans-38"/>
      </g>
     </g>
    </g>
   </g>
   <g id="line2d_15">
    <path clip-path="url(#pb9ea40e002)" d="M 69.218182 44.545232 
L 72.292562 57.188283 
L 75.366942 69.502047 
L 78.441322 83.144872 
L 81.515702 98.633728 
L 84.590083 115.648542 
L 87.664463 133.113121 
L 90.738843 149.611415 
L 93.813223 164.034415 
L 96.887603 175.948314 
L 99.961983 185.484828 
L 103.036364 193.028986 
L 106.110744 198.991667 
L 109.185124 203.720814 
L 112.259504 207.492444 
L 115.333884 210.519638 
L 118.408264 212.968275 
L 121.482645 214.966025 
L 124.557025 216.610887 
L 127.631405 217.978833 
L 130.705785 219.127629 
L 133.780165 220.102229 
L 136.854545 220.937922 
L 139.928926 221.661904 
L 143.003306 222.295753 
L 146.077686 222.857002 
L 149.152066 223.359137 
L 152.226446 223.813621 
L 155.300826 224.229219 
L 158.375207 224.613125 
L 161.449587 224.971632 
L 164.523967 225.309236 
L 167.598347 225.629757 
L 170.672727 225.936792 
L 173.747107 226.232813 
L 176.821488 226.519619 
L 179.895868 226.799232 
L 182.970248 227.073001 
L 186.044628 227.342275 
L 189.119008 227.607502 
L 192.193388 227.870033 
L 195.267769 228.129866 
L 198.342149 228.388126 
L 201.416529 228.644813 
L 204.490909 228.900151 
L 207.565289 229.154815 
L 210.639669 229.408579 
L 213.71405 229.661894 
L 216.78843 229.91476 
L 219.86281 230.1674 
L 222.93719 230.419816 
L 226.01157 230.672008 
L 229.08595 230.923974 
L 232.160331 231.17594 
L 235.234711 231.427682 
L 238.309091 231.679424 
L 241.383471 231.930941 
L 244.457851 232.182233 
L 247.532231 232.433525 
L 250.606612 232.684592 
L 253.680992 232.935435 
L 256.755372 233.185828 
L 259.829752 233.436221 
L 262.904132 233.686389 
L 265.978512 233.935883 
L 269.052893 234.185152 
L 272.127273 234.433972 
L 275.201653 234.682118 
L 278.276033 234.930038 
L 281.350413 235.177284 
L 284.424793 235.423856 
L 287.499174 235.669754 
L 290.573554 235.914977 
L 293.647934 236.159526 
L 296.722314 236.403176 
L 299.796694 236.645927 
L 302.871074 236.887779 
L 305.945455 237.128957 
L 309.019835 237.36901 
L 312.094215 237.60794 
L 315.168595 237.845971 
L 318.242975 238.082653 
L 321.317355 238.318436 
L 324.391736 238.55287 
L 327.466116 238.786181 
L 330.540496 239.018143 
L 333.614876 239.248756 
L 336.689256 239.478246 
L 339.763636 239.706162 
L 342.838017 239.932729 
L 345.912397 240.157948 
L 348.986777 240.381594 
L 352.061157 240.603666 
L 355.135537 240.824389 
L 358.209917 241.04354 
L 361.284298 241.261341 
L 364.358678 241.477569 
L 367.433058 241.691999 
L 370.507438 241.90508 
L 373.581818 242.116364 
" style="fill:none;stroke:#ff0000;stroke-linecap:square;stroke-width:1.5;"/>
   </g>
   <g id="line2d_16">
    <path clip-path="url(#pb9ea40e002)" d="M 69.218182 44.443636 
L 72.292562 56.699185 
L 75.366942 68.783235 
L 78.441322 81.949549 
L 81.515702 96.651037 
L 84.590083 112.559537 
L 87.664463 128.627623 
L 90.738843 143.4869 
L 93.813223 156.056901 
L 96.887603 165.896179 
L 99.961983 173.11622 
L 103.036364 178.124306 
L 106.110744 181.433585 
L 109.185124 183.56777 
L 112.259504 184.995954 
L 115.333884 186.07687 
L 118.408264 187.02742 
L 121.482645 187.928071 
L 124.557025 188.762864 
L 127.631405 189.473809 
L 130.705785 190.007187 
L 133.780165 190.338947 
L 136.854545 190.475382 
L 139.928926 190.443464 
L 143.003306 190.27736 
L 146.077686 190.008985 
L 149.152066 189.664863 
L 152.226446 189.263425 
L 155.300826 188.817708 
L 158.375207 188.336252 
L 161.449587 187.824901 
L 164.523967 187.287028 
L 167.598347 186.726004 
L 170.672727 186.144526 
L 173.747107 185.545291 
L 176.821488 184.931221 
L 179.895868 184.305238 
L 182.970248 183.671164 
L 186.044628 183.032594 
L 189.119008 182.39335 
L 192.193388 181.757028 
L 195.267769 181.127674 
L 198.342149 180.508884 
L 201.416529 179.90403 
L 204.490909 179.316707 
L 207.565289 178.74894 
L 210.639669 178.203425 
L 213.71405 177.681735 
L 216.78843 177.18477 
L 219.86281 176.713654 
L 222.93719 176.26861 
L 226.01157 175.849191 
L 229.08595 175.45472 
L 232.160331 175.084525 
L 235.234711 174.737257 
L 238.309091 174.411791 
L 241.383471 174.106104 
L 244.457851 173.819523 
L 247.532231 173.549575 
L 250.606612 173.295586 
L 253.680992 173.055532 
L 256.755372 172.828066 
L 259.829752 172.612063 
L 262.904132 172.406399 
L 265.978512 172.20995 
L 269.052893 172.021369 
L 272.127273 171.840205 
L 275.201653 171.665334 
L 278.276033 171.496307 
L 281.350413 171.332226 
L 284.424793 171.172864 
L 287.499174 171.017324 
L 290.573554 170.86538 
L 293.647934 170.716583 
L 296.722314 170.570483 
L 299.796694 170.426855 
L 302.871074 170.285475 
L 305.945455 170.145668 
L 309.019835 170.007885 
L 312.094215 169.871225 
L 315.168595 169.735914 
L 318.242975 169.601502 
L 321.317355 169.467989 
L 324.391736 169.334925 
L 327.466116 169.202312 
L 330.540496 169.069922 
L 333.614876 168.937533 
L 336.689256 168.805144 
L 339.763636 168.672305 
L 342.838017 168.539242 
L 345.912397 168.405279 
L 348.986777 168.270643 
L 352.061157 168.135107 
L 355.135537 167.998222 
L 358.209917 167.859989 
L 361.284298 167.720182 
L 364.358678 167.578578 
L 367.433058 167.43495 
L 370.507438 167.289075 
L 373.581818 167.140952 
" style="fill:none;stroke:#1f77b4;stroke-linecap:square;stroke-width:1.5;"/>
   </g>
   <g id="patch_3">
    <path d="M 54 252 
L 54 34.56 
" style="fill:none;stroke:#000000;stroke-linecap:square;stroke-linejoin:miter;stroke-width:0.8;"/>
   </g>
   <g id="patch_4">
    <path d="M 388.8 252 
L 388.8 34.56 
" style="fill:none;stroke:#000000;stroke-linecap:square;stroke-linejoin:miter;stroke-width:0.8;"/>
   </g>
   <g id="patch_5">
    <path d="M 54 252 
L 388.8 252 
" style="fill:none;stroke:#000000;stroke-linecap:square;stroke-linejoin:miter;stroke-width:0.8;"/>
   </g>
   <g id="patch_6">
    <path d="M 54 34.56 
L 388.8 34.56 
" style="fill:none;stroke:#000000;stroke-linecap:square;stroke-linejoin:miter;stroke-width:0.8;"/>
   </g>
  </g>
 </g>
 <defs>
  <clipPath id="pb9ea40e002">
   <rect height="217.44" width="334.8" x="54" y="34.56"/>
  </clipPath>
 </defs>
</svg>
