<?xml version="1.0" encoding="utf-8" standalone="no"?>
<!DOCTYPE svg PUBLIC "-//W3C//DTD SVG 1.1//EN"
  "http://www.w3.org/Graphics/SVG/1.1/DTD/svg11.dtd">
<!-- Created with matplotlib (http://matplotlib.org/) -->
<svg height="1440pt" version="1.1" viewBox="0 0 1440 1440" width="1440pt" xmlns="http://www.w3.org/2000/svg" xmlns:xlink="http://www.w3.org/1999/xlink">
 <defs>
  <style type="text/css">
*{stroke-linecap:butt;stroke-linejoin:round;}
  </style>
 </defs>
 <g id="figure_1">
  <g id="patch_1">
   <path d="M 0 1440 
L 1440 1440 
L 1440 0 
L 0 0 
z
" style="fill:#ffffff;"/>
  </g>
  <g id="axes_1">
   <g id="patch_2">
    <path d="M 180 1260 
L 1296 1260 
L 1296 172.8 
L 180 172.8 
z
" style="fill:#ffffff;"/>
   </g>
   <g id="matplotlib.axis_1">
    <g id="xtick_1">
     <g id="line2d_1">
      <defs>
       <path d="M 0 0 
L 0 3.5 
" id="mc378fa01a4" style="stroke:#000000;stroke-width:0.8;"/>
      </defs>
      <g>
       <use style="stroke:#000000;stroke-width:0.8;" x="230.727273" xlink:href="#mc378fa01a4" y="1260"/>
      </g>
     </g>
     <g id="text_1">
      <!-- 0 -->
      <defs>
       <path d="M 31.78125 66.40625 
Q 24.171875 66.40625 20.328125 58.90625 
Q 16.5 51.421875 16.5 36.375 
Q 16.5 21.390625 20.328125 13.890625 
Q 24.171875 6.390625 31.78125 6.390625 
Q 39.453125 6.390625 43.28125 13.890625 
Q 47.125 21.390625 47.125 36.375 
Q 47.125 51.421875 43.28125 58.90625 
Q 39.453125 66.40625 31.78125 66.40625 
M 31.78125 74.21875 
Q 44.046875 74.21875 50.515625 64.515625 
Q 56.984375 54.828125 56.984375 36.375 
Q 56.984375 17.96875 50.515625 8.265625 
Q 44.046875 -1.421875 31.78125 -1.421875 
Q 19.53125 -1.421875 13.0625 8.265625 
Q 6.59375 17.96875 6.59375 36.375 
Q 6.59375 54.828125 13.0625 64.515625 
Q 19.53125 74.21875 31.78125 74.21875 
" id="DejaVuSans-30"/>
      </defs>
      <g transform="translate(227.546023 1274.598438)scale(0.1 -0.1)">
       <use xlink:href="#DejaVuSans-30"/>
      </g>
     </g>
    </g>
    <g id="xtick_2">
     <g id="line2d_2">
      <g>
       <use style="stroke:#000000;stroke-width:0.8;" x="435.68595" xlink:href="#mc378fa01a4" y="1260"/>
      </g>
     </g>
     <g id="text_2">
      <!-- 20 -->
      <defs>
       <path d="M 19.1875 8.296875 
L 53.609375 8.296875 
L 53.609375 0 
L 7.328125 0 
L 7.328125 8.296875 
Q 12.9375 14.109375 22.625 23.890625 
Q 32.328125 33.6875 34.8125 36.53125 
Q 39.546875 41.84375 41.421875 45.53125 
Q 43.3125 49.21875 43.3125 52.78125 
Q 43.3125 58.59375 39.234375 62.25 
Q 35.15625 65.921875 28.609375 65.921875 
Q 23.96875 65.921875 18.8125 64.3125 
Q 13.671875 62.703125 7.8125 59.421875 
L 7.8125 69.390625 
Q 13.765625 71.78125 18.9375 73 
Q 24.125 74.21875 28.421875 74.21875 
Q 39.75 74.21875 46.484375 68.546875 
Q 53.21875 62.890625 53.21875 53.421875 
Q 53.21875 48.921875 51.53125 44.890625 
Q 49.859375 40.875 45.40625 35.40625 
Q 44.1875 33.984375 37.640625 27.21875 
Q 31.109375 20.453125 19.1875 8.296875 
" id="DejaVuSans-32"/>
      </defs>
      <g transform="translate(429.32345 1274.598438)scale(0.1 -0.1)">
       <use xlink:href="#DejaVuSans-32"/>
       <use x="63.623047" xlink:href="#DejaVuSans-30"/>
      </g>
     </g>
    </g>
    <g id="xtick_3">
     <g id="line2d_3">
      <g>
       <use style="stroke:#000000;stroke-width:0.8;" x="640.644628" xlink:href="#mc378fa01a4" y="1260"/>
      </g>
     </g>
     <g id="text_3">
      <!-- 40 -->
      <defs>
       <path d="M 37.796875 64.3125 
L 12.890625 25.390625 
L 37.796875 25.390625 
z
M 35.203125 72.90625 
L 47.609375 72.90625 
L 47.609375 25.390625 
L 58.015625 25.390625 
L 58.015625 17.1875 
L 47.609375 17.1875 
L 47.609375 0 
L 37.796875 0 
L 37.796875 17.1875 
L 4.890625 17.1875 
L 4.890625 26.703125 
z
" id="DejaVuSans-34"/>
      </defs>
      <g transform="translate(634.282128 1274.598438)scale(0.1 -0.1)">
       <use xlink:href="#DejaVuSans-34"/>
       <use x="63.623047" xlink:href="#DejaVuSans-30"/>
      </g>
     </g>
    </g>
    <g id="xtick_4">
     <g id="line2d_4">
      <g>
       <use style="stroke:#000000;stroke-width:0.8;" x="845.603306" xlink:href="#mc378fa01a4" y="1260"/>
      </g>
     </g>
     <g id="text_4">
      <!-- 60 -->
      <defs>
       <path d="M 33.015625 40.375 
Q 26.375 40.375 22.484375 35.828125 
Q 18.609375 31.296875 18.609375 23.390625 
Q 18.609375 15.53125 22.484375 10.953125 
Q 26.375 6.390625 33.015625 6.390625 
Q 39.65625 6.390625 43.53125 10.953125 
Q 47.40625 15.53125 47.40625 23.390625 
Q 47.40625 31.296875 43.53125 35.828125 
Q 39.65625 40.375 33.015625 40.375 
M 52.59375 71.296875 
L 52.59375 62.3125 
Q 48.875 64.0625 45.09375 64.984375 
Q 41.3125 65.921875 37.59375 65.921875 
Q 27.828125 65.921875 22.671875 59.328125 
Q 17.53125 52.734375 16.796875 39.40625 
Q 19.671875 43.65625 24.015625 45.921875 
Q 28.375 48.1875 33.59375 48.1875 
Q 44.578125 48.1875 50.953125 41.515625 
Q 57.328125 34.859375 57.328125 23.390625 
Q 57.328125 12.15625 50.6875 5.359375 
Q 44.046875 -1.421875 33.015625 -1.421875 
Q 20.359375 -1.421875 13.671875 8.265625 
Q 6.984375 17.96875 6.984375 36.375 
Q 6.984375 53.65625 15.1875 63.9375 
Q 23.390625 74.21875 37.203125 74.21875 
Q 40.921875 74.21875 44.703125 73.484375 
Q 48.484375 72.75 52.59375 71.296875 
" id="DejaVuSans-36"/>
      </defs>
      <g transform="translate(839.240806 1274.598438)scale(0.1 -0.1)">
       <use xlink:href="#DejaVuSans-36"/>
       <use x="63.623047" xlink:href="#DejaVuSans-30"/>
      </g>
     </g>
    </g>
    <g id="xtick_5">
     <g id="line2d_5">
      <g>
       <use style="stroke:#000000;stroke-width:0.8;" x="1050.561983" xlink:href="#mc378fa01a4" y="1260"/>
      </g>
     </g>
     <g id="text_5">
      <!-- 80 -->
      <defs>
       <path d="M 31.78125 34.625 
Q 24.75 34.625 20.71875 30.859375 
Q 16.703125 27.09375 16.703125 20.515625 
Q 16.703125 13.921875 20.71875 10.15625 
Q 24.75 6.390625 31.78125 6.390625 
Q 38.8125 6.390625 42.859375 10.171875 
Q 46.921875 13.96875 46.921875 20.515625 
Q 46.921875 27.09375 42.890625 30.859375 
Q 38.875 34.625 31.78125 34.625 
M 21.921875 38.8125 
Q 15.578125 40.375 12.03125 44.71875 
Q 8.5 49.078125 8.5 55.328125 
Q 8.5 64.0625 14.71875 69.140625 
Q 20.953125 74.21875 31.78125 74.21875 
Q 42.671875 74.21875 48.875 69.140625 
Q 55.078125 64.0625 55.078125 55.328125 
Q 55.078125 49.078125 51.53125 44.71875 
Q 48 40.375 41.703125 38.8125 
Q 48.828125 37.15625 52.796875 32.3125 
Q 56.78125 27.484375 56.78125 20.515625 
Q 56.78125 9.90625 50.3125 4.234375 
Q 43.84375 -1.421875 31.78125 -1.421875 
Q 19.734375 -1.421875 13.25 4.234375 
Q 6.78125 9.90625 6.78125 20.515625 
Q 6.78125 27.484375 10.78125 32.3125 
Q 14.796875 37.15625 21.921875 38.8125 
M 18.3125 54.390625 
Q 18.3125 48.734375 21.84375 45.5625 
Q 25.390625 42.390625 31.78125 42.390625 
Q 38.140625 42.390625 41.71875 45.5625 
Q 45.3125 48.734375 45.3125 54.390625 
Q 45.3125 60.0625 41.71875 63.234375 
Q 38.140625 66.40625 31.78125 66.40625 
Q 25.390625 66.40625 21.84375 63.234375 
Q 18.3125 60.0625 18.3125 54.390625 
" id="DejaVuSans-38"/>
      </defs>
      <g transform="translate(1044.199483 1274.598438)scale(0.1 -0.1)">
       <use xlink:href="#DejaVuSans-38"/>
       <use x="63.623047" xlink:href="#DejaVuSans-30"/>
      </g>
     </g>
    </g>
    <g id="xtick_6">
     <g id="line2d_6">
      <g>
       <use style="stroke:#000000;stroke-width:0.8;" x="1255.520661" xlink:href="#mc378fa01a4" y="1260"/>
      </g>
     </g>
     <g id="text_6">
      <!-- 100 -->
      <defs>
       <path d="M 12.40625 8.296875 
L 28.515625 8.296875 
L 28.515625 63.921875 
L 10.984375 60.40625 
L 10.984375 69.390625 
L 28.421875 72.90625 
L 38.28125 72.90625 
L 38.28125 8.296875 
L 54.390625 8.296875 
L 54.390625 0 
L 12.40625 0 
z
" id="DejaVuSans-31"/>
      </defs>
      <g transform="translate(1245.976911 1274.598438)scale(0.1 -0.1)">
       <use xlink:href="#DejaVuSans-31"/>
       <use x="63.623047" xlink:href="#DejaVuSans-30"/>
       <use x="127.246094" xlink:href="#DejaVuSans-30"/>
      </g>
     </g>
    </g>
   </g>
   <g id="matplotlib.axis_2">
    <g id="ytick_1">
     <g id="line2d_7">
      <defs>
       <path d="M 0 0 
L -3.5 0 
" id="mc895970a29" style="stroke:#000000;stroke-width:0.8;"/>
      </defs>
      <g>
       <use style="stroke:#000000;stroke-width:0.8;" x="180" xlink:href="#mc895970a29" y="1136.872006"/>
      </g>
     </g>
     <g id="text_7">
      <!-- 1.050 -->
      <defs>
       <path d="M 10.6875 12.40625 
L 21 12.40625 
L 21 0 
L 10.6875 0 
z
" id="DejaVuSans-2e"/>
       <path d="M 10.796875 72.90625 
L 49.515625 72.90625 
L 49.515625 64.59375 
L 19.828125 64.59375 
L 19.828125 46.734375 
Q 21.96875 47.46875 24.109375 47.828125 
Q 26.265625 48.1875 28.421875 48.1875 
Q 40.625 48.1875 47.75 41.5 
Q 54.890625 34.8125 54.890625 23.390625 
Q 54.890625 11.625 47.5625 5.09375 
Q 40.234375 -1.421875 26.90625 -1.421875 
Q 22.3125 -1.421875 17.546875 -0.640625 
Q 12.796875 0.140625 7.71875 1.703125 
L 7.71875 11.625 
Q 12.109375 9.234375 16.796875 8.0625 
Q 21.484375 6.890625 26.703125 6.890625 
Q 35.15625 6.890625 40.078125 11.328125 
Q 45.015625 15.765625 45.015625 23.390625 
Q 45.015625 31 40.078125 35.4375 
Q 35.15625 39.890625 26.703125 39.890625 
Q 22.75 39.890625 18.8125 39.015625 
Q 14.890625 38.140625 10.796875 36.28125 
z
" id="DejaVuSans-35"/>
      </defs>
      <g transform="translate(144.371875 1140.671224)scale(0.1 -0.1)">
       <use xlink:href="#DejaVuSans-31"/>
       <use x="63.623047" xlink:href="#DejaVuSans-2e"/>
       <use x="95.410156" xlink:href="#DejaVuSans-30"/>
       <use x="159.033203" xlink:href="#DejaVuSans-35"/>
       <use x="222.65625" xlink:href="#DejaVuSans-30"/>
      </g>
     </g>
    </g>
    <g id="ytick_2">
     <g id="line2d_8">
      <g>
       <use style="stroke:#000000;stroke-width:0.8;" x="180" xlink:href="#mc895970a29" y="977.972687"/>
      </g>
     </g>
     <g id="text_8">
      <!-- 1.055 -->
      <g transform="translate(144.371875 981.771906)scale(0.1 -0.1)">
       <use xlink:href="#DejaVuSans-31"/>
       <use x="63.623047" xlink:href="#DejaVuSans-2e"/>
       <use x="95.410156" xlink:href="#DejaVuSans-30"/>
       <use x="159.033203" xlink:href="#DejaVuSans-35"/>
       <use x="222.65625" xlink:href="#DejaVuSans-35"/>
      </g>
     </g>
    </g>
    <g id="ytick_3">
     <g id="line2d_9">
      <g>
       <use style="stroke:#000000;stroke-width:0.8;" x="180" xlink:href="#mc895970a29" y="819.073369"/>
      </g>
     </g>
     <g id="text_9">
      <!-- 1.060 -->
      <g transform="translate(144.371875 822.872587)scale(0.1 -0.1)">
       <use xlink:href="#DejaVuSans-31"/>
       <use x="63.623047" xlink:href="#DejaVuSans-2e"/>
       <use x="95.410156" xlink:href="#DejaVuSans-30"/>
       <use x="159.033203" xlink:href="#DejaVuSans-36"/>
       <use x="222.65625" xlink:href="#DejaVuSans-30"/>
      </g>
     </g>
    </g>
    <g id="ytick_4">
     <g id="line2d_10">
      <g>
       <use style="stroke:#000000;stroke-width:0.8;" x="180" xlink:href="#mc895970a29" y="660.17405"/>
      </g>
     </g>
     <g id="text_10">
      <!-- 1.065 -->
      <g transform="translate(144.371875 663.973269)scale(0.1 -0.1)">
       <use xlink:href="#DejaVuSans-31"/>
       <use x="63.623047" xlink:href="#DejaVuSans-2e"/>
       <use x="95.410156" xlink:href="#DejaVuSans-30"/>
       <use x="159.033203" xlink:href="#DejaVuSans-36"/>
       <use x="222.65625" xlink:href="#DejaVuSans-35"/>
      </g>
     </g>
    </g>
    <g id="ytick_5">
     <g id="line2d_11">
      <g>
       <use style="stroke:#000000;stroke-width:0.8;" x="180" xlink:href="#mc895970a29" y="501.274732"/>
      </g>
     </g>
     <g id="text_11">
      <!-- 1.070 -->
      <defs>
       <path d="M 8.203125 72.90625 
L 55.078125 72.90625 
L 55.078125 68.703125 
L 28.609375 0 
L 18.3125 0 
L 43.21875 64.59375 
L 8.203125 64.59375 
z
" id="DejaVuSans-37"/>
      </defs>
      <g transform="translate(144.371875 505.07395)scale(0.1 -0.1)">
       <use xlink:href="#DejaVuSans-31"/>
       <use x="63.623047" xlink:href="#DejaVuSans-2e"/>
       <use x="95.410156" xlink:href="#DejaVuSans-30"/>
       <use x="159.033203" xlink:href="#DejaVuSans-37"/>
       <use x="222.65625" xlink:href="#DejaVuSans-30"/>
      </g>
     </g>
    </g>
    <g id="ytick_6">
     <g id="line2d_12">
      <g>
       <use style="stroke:#000000;stroke-width:0.8;" x="180" xlink:href="#mc895970a29" y="342.375413"/>
      </g>
     </g>
     <g id="text_12">
      <!-- 1.075 -->
      <g transform="translate(144.371875 346.174632)scale(0.1 -0.1)">
       <use xlink:href="#DejaVuSans-31"/>
       <use x="63.623047" xlink:href="#DejaVuSans-2e"/>
       <use x="95.410156" xlink:href="#DejaVuSans-30"/>
       <use x="159.033203" xlink:href="#DejaVuSans-37"/>
       <use x="222.65625" xlink:href="#DejaVuSans-35"/>
      </g>
     </g>
    </g>
    <g id="ytick_7">
     <g id="line2d_13">
      <g>
       <use style="stroke:#000000;stroke-width:0.8;" x="180" xlink:href="#mc895970a29" y="183.476095"/>
      </g>
     </g>
     <g id="text_13">
      <!-- 1.080 -->
      <g transform="translate(144.371875 187.275313)scale(0.1 -0.1)">
       <use xlink:href="#DejaVuSans-31"/>
       <use x="63.623047" xlink:href="#DejaVuSans-2e"/>
       <use x="95.410156" xlink:href="#DejaVuSans-30"/>
       <use x="159.033203" xlink:href="#DejaVuSans-38"/>
       <use x="222.65625" xlink:href="#DejaVuSans-30"/>
      </g>
     </g>
    </g>
   </g>
   <g id="line2d_14">
    <path clip-path="url(#p594aa6837c)" d="M 230.727273 222.218182 
L 240.975207 502.809355 
L 251.22314 580.921996 
L 261.471074 635.476705 
L 271.719008 685.422322 
L 281.966942 732.229428 
L 292.214876 775.707038 
L 302.46281 815.673718 
L 312.710744 852.065805 
L 322.958678 884.918314 
L 333.206612 914.32992 
L 343.454545 940.497973 
L 353.702479 963.686668 
L 363.950413 984.223863 
L 374.198347 1002.44378 
L 384.446281 1018.696556 
L 394.694215 1033.329148 
L 404.942149 1046.647131 
L 415.190083 1058.787376 
L 425.438017 1069.807179 
L 435.68595 1079.677892 
L 445.933884 1088.440895 
L 456.181818 1096.191681 
L 466.429752 1103.067121 
L 476.677686 1109.207271 
L 486.92562 1114.688525 
L 497.173554 1119.609558 
L 507.421488 1124.030848 
L 517.669421 1128.025606 
L 527.917355 1131.647944 
L 538.165289 1134.939243 
L 548.413223 1137.953614 
L 558.661157 1140.70379 
L 568.909091 1143.243884 
L 579.157025 1145.58026 
L 589.404959 1147.747934 
L 599.652893 1149.766003 
L 609.900826 1151.650383 
L 620.14876 1153.39789 
L 630.396694 1155.040357 
L 640.644628 1156.584148 
L 650.892562 1158.035629 
L 661.140496 1159.4139 
L 671.38843 1160.703046 
L 681.636364 1161.925346 
L 691.884298 1163.083985 
L 702.132231 1164.188512 
L 712.380165 1165.226194 
L 722.628099 1166.228862 
L 732.876033 1167.171052 
L 743.123967 1168.081412 
L 753.371901 1168.947208 
L 763.619835 1169.774807 
L 773.867769 1170.567392 
L 784.115702 1171.318598 
L 794.363636 1172.044339 
L 804.61157 1172.754164 
L 814.859504 1173.425793 
L 825.107438 1174.081506 
L 835.355372 1174.705389 
L 845.603306 1175.310173 
L 855.85124 1175.889493 
L 866.099174 1176.459263 
L 876.347107 1177.016301 
L 886.595041 1177.547874 
L 896.842975 1178.060349 
L 907.090909 1178.560092 
L 917.338843 1179.053468 
L 927.586777 1179.527746 
L 937.834711 1180.002024 
L 948.082645 1180.450838 
L 958.330579 1180.902834 
L 968.578512 1181.332549 
L 978.826446 1181.765447 
L 989.07438 1182.188796 
L 999.322314 1182.602596 
L 1009.570248 1183.003663 
L 1019.818182 1183.401548 
L 1030.066116 1183.7867 
L 1040.31405 1184.181401 
L 1050.561983 1184.56337 
L 1060.809917 1184.938972 
L 1071.057851 1185.314575 
L 1081.305785 1185.680629 
L 1091.553719 1186.049865 
L 1101.801653 1186.403187 
L 1112.049587 1186.759691 
L 1122.297521 1187.122561 
L 1132.545455 1187.466333 
L 1142.793388 1187.819655 
L 1153.041322 1188.16661 
L 1163.289256 1188.504016 
L 1173.53719 1188.847788 
L 1183.785124 1189.18201 
L 1194.033058 1189.525782 
L 1204.280992 1189.853639 
L 1214.528926 1190.191045 
L 1224.77686 1190.515718 
L 1235.024793 1190.846758 
L 1245.272727 1191.174615 
" style="fill:none;stroke:#ff0000;stroke-linecap:square;stroke-width:1.5;"/>
   </g>
   <g id="line2d_15">
    <path clip-path="url(#p594aa6837c)" d="M 230.727273 339.078385 
L 240.975207 528.156175 
L 251.22314 605.549441 
L 261.471074 677.480552 
L 271.719008 747.336298 
L 281.966942 812.617967 
L 292.214876 871.046477 
L 302.46281 921.284937 
L 312.710744 963.034138 
L 322.958678 996.822471 
L 333.206612 1023.700349 
L 343.454545 1044.988749 
L 353.702479 1061.932253 
L 363.950413 1075.673585 
L 374.198347 1087.094455 
L 384.446281 1096.898323 
L 394.694215 1105.53082 
L 404.942149 1113.329352 
L 415.190083 1120.427608 
L 425.438017 1126.943361 
L 435.68595 1132.898892 
L 445.933884 1138.351499 
L 456.181818 1143.317094 
L 466.429752 1147.862524 
L 476.677686 1152.01007 
L 486.92562 1155.807477 
L 497.173554 1159.254747 
L 507.421488 1162.402807 
L 517.669421 1165.277123 
L 527.917355 1167.871329 
L 538.165289 1170.229987 
L 548.413223 1172.375379 
L 558.661157 1174.304322 
L 568.909091 1176.058195 
L 579.157025 1177.652916 
L 589.404959 1179.085299 
L 599.652893 1180.396726 
L 609.900826 1181.587195 
L 620.14876 1182.67899 
L 630.396694 1183.672109 
L 640.644628 1184.588834 
L 650.892562 1185.438715 
L 661.140496 1186.224934 
L 671.38843 1186.950675 
L 681.636364 1187.638219 
L 691.884298 1188.278017 
L 702.132231 1188.879618 
L 712.380165 1189.465304 
L 722.628099 1190.019159 
L 732.876033 1190.550732 
L 743.123967 1191.053658 
L 753.371901 1191.547034 
L 763.619835 1192.034045 
L 773.867769 1192.495591 
L 784.115702 1192.95077 
L 794.363636 1193.396401 
L 804.61157 1193.832482 
L 814.859504 1194.255831 
L 825.107438 1194.682363 
L 835.355372 1195.102528 
L 845.603306 1195.513145 
L 855.85124 1195.926945 
L 866.099174 1196.328012 
L 876.347107 1196.738629 
L 886.595041 1197.142879 
L 896.842975 1197.53758 
L 907.090909 1197.938647 
L 917.338843 1198.336532 
L 927.586777 1198.721684 
L 937.834711 1199.116385 
L 948.082645 1199.514269 
L 958.330579 1199.905787 
L 968.578512 1200.294122 
L 978.826446 1200.688824 
L 989.07438 1201.080342 
L 999.322314 1201.468677 
L 1009.570248 1201.853829 
L 1019.818182 1202.238981 
L 1030.066116 1202.633682 
L 1040.31405 1203.018834 
L 1050.561983 1203.400803 
L 1060.809917 1203.785955 
L 1071.057851 1204.17429 
L 1081.305785 1204.556259 
L 1091.553719 1204.935045 
L 1101.801653 1205.320197 
L 1112.049587 1205.705349 
L 1122.297521 1206.084134 
L 1132.545455 1206.466103 
L 1142.793388 1206.851255 
L 1153.041322 1207.223675 
L 1163.289256 1207.608827 
L 1173.53719 1207.98443 
L 1183.785124 1208.360032 
L 1194.033058 1208.735635 
L 1204.280992 1209.095323 
L 1214.528926 1209.470925 
L 1224.77686 1209.843345 
L 1235.024793 1210.206215 
L 1245.272727 1210.581818 
" style="fill:none;stroke:#1f77b4;stroke-linecap:square;stroke-width:1.5;"/>
   </g>
   <g id="patch_3">
    <path d="M 180 1260 
L 180 172.8 
" style="fill:none;stroke:#000000;stroke-linecap:square;stroke-linejoin:miter;stroke-width:0.8;"/>
   </g>
   <g id="patch_4">
    <path d="M 1296 1260 
L 1296 172.8 
" style="fill:none;stroke:#000000;stroke-linecap:square;stroke-linejoin:miter;stroke-width:0.8;"/>
   </g>
   <g id="patch_5">
    <path d="M 180 1260 
L 1296 1260 
" style="fill:none;stroke:#000000;stroke-linecap:square;stroke-linejoin:miter;stroke-width:0.8;"/>
   </g>
   <g id="patch_6">
    <path d="M 180 172.8 
L 1296 172.8 
" style="fill:none;stroke:#000000;stroke-linecap:square;stroke-linejoin:miter;stroke-width:0.8;"/>
   </g>
  </g>
 </g>
 <defs>
  <clipPath id="p594aa6837c">
   <rect height="1087.2" width="1116" x="180" y="172.8"/>
  </clipPath>
 </defs>
</svg>
