<?xml version="1.0" encoding="utf-8" standalone="no"?>
<!DOCTYPE svg PUBLIC "-//W3C//DTD SVG 1.1//EN"
  "http://www.w3.org/Graphics/SVG/1.1/DTD/svg11.dtd">
<!-- Created with matplotlib (http://matplotlib.org/) -->
<svg height="1440pt" version="1.1" viewBox="0 0 1440 1440" width="1440pt" xmlns="http://www.w3.org/2000/svg" xmlns:xlink="http://www.w3.org/1999/xlink">
 <defs>
  <style type="text/css">
*{stroke-linecap:butt;stroke-linejoin:round;}
  </style>
 </defs>
 <g id="figure_1">
  <g id="patch_1">
   <path d="M 0 1440 
L 1440 1440 
L 1440 0 
L 0 0 
z
" style="fill:#ffffff;"/>
  </g>
  <g id="axes_1">
   <g id="patch_2">
    <path d="M 180 1260 
L 1296 1260 
L 1296 172.8 
L 180 172.8 
z
" style="fill:#ffffff;"/>
   </g>
   <g id="matplotlib.axis_1">
    <g id="xtick_1">
     <g id="line2d_1">
      <defs>
       <path d="M 0 0 
L 0 3.5 
" id="m508b3ae35f" style="stroke:#000000;stroke-width:0.8;"/>
      </defs>
      <g>
       <use style="stroke:#000000;stroke-width:0.8;" x="230.727273" xlink:href="#m508b3ae35f" y="1260"/>
      </g>
     </g>
     <g id="text_1">
      <!-- 0 -->
      <defs>
       <path d="M 31.78125 66.40625 
Q 24.171875 66.40625 20.328125 58.90625 
Q 16.5 51.421875 16.5 36.375 
Q 16.5 21.390625 20.328125 13.890625 
Q 24.171875 6.390625 31.78125 6.390625 
Q 39.453125 6.390625 43.28125 13.890625 
Q 47.125 21.390625 47.125 36.375 
Q 47.125 51.421875 43.28125 58.90625 
Q 39.453125 66.40625 31.78125 66.40625 
M 31.78125 74.21875 
Q 44.046875 74.21875 50.515625 64.515625 
Q 56.984375 54.828125 56.984375 36.375 
Q 56.984375 17.96875 50.515625 8.265625 
Q 44.046875 -1.421875 31.78125 -1.421875 
Q 19.53125 -1.421875 13.0625 8.265625 
Q 6.59375 17.96875 6.59375 36.375 
Q 6.59375 54.828125 13.0625 64.515625 
Q 19.53125 74.21875 31.78125 74.21875 
" id="DejaVuSans-30"/>
      </defs>
      <g transform="translate(227.546023 1274.598438)scale(0.1 -0.1)">
       <use xlink:href="#DejaVuSans-30"/>
      </g>
     </g>
    </g>
    <g id="xtick_2">
     <g id="line2d_2">
      <g>
       <use style="stroke:#000000;stroke-width:0.8;" x="435.68595" xlink:href="#m508b3ae35f" y="1260"/>
      </g>
     </g>
     <g id="text_2">
      <!-- 20 -->
      <defs>
       <path d="M 19.1875 8.296875 
L 53.609375 8.296875 
L 53.609375 0 
L 7.328125 0 
L 7.328125 8.296875 
Q 12.9375 14.109375 22.625 23.890625 
Q 32.328125 33.6875 34.8125 36.53125 
Q 39.546875 41.84375 41.421875 45.53125 
Q 43.3125 49.21875 43.3125 52.78125 
Q 43.3125 58.59375 39.234375 62.25 
Q 35.15625 65.921875 28.609375 65.921875 
Q 23.96875 65.921875 18.8125 64.3125 
Q 13.671875 62.703125 7.8125 59.421875 
L 7.8125 69.390625 
Q 13.765625 71.78125 18.9375 73 
Q 24.125 74.21875 28.421875 74.21875 
Q 39.75 74.21875 46.484375 68.546875 
Q 53.21875 62.890625 53.21875 53.421875 
Q 53.21875 48.921875 51.53125 44.890625 
Q 49.859375 40.875 45.40625 35.40625 
Q 44.1875 33.984375 37.640625 27.21875 
Q 31.109375 20.453125 19.1875 8.296875 
" id="DejaVuSans-32"/>
      </defs>
      <g transform="translate(429.32345 1274.598438)scale(0.1 -0.1)">
       <use xlink:href="#DejaVuSans-32"/>
       <use x="63.623047" xlink:href="#DejaVuSans-30"/>
      </g>
     </g>
    </g>
    <g id="xtick_3">
     <g id="line2d_3">
      <g>
       <use style="stroke:#000000;stroke-width:0.8;" x="640.644628" xlink:href="#m508b3ae35f" y="1260"/>
      </g>
     </g>
     <g id="text_3">
      <!-- 40 -->
      <defs>
       <path d="M 37.796875 64.3125 
L 12.890625 25.390625 
L 37.796875 25.390625 
z
M 35.203125 72.90625 
L 47.609375 72.90625 
L 47.609375 25.390625 
L 58.015625 25.390625 
L 58.015625 17.1875 
L 47.609375 17.1875 
L 47.609375 0 
L 37.796875 0 
L 37.796875 17.1875 
L 4.890625 17.1875 
L 4.890625 26.703125 
z
" id="DejaVuSans-34"/>
      </defs>
      <g transform="translate(634.282128 1274.598438)scale(0.1 -0.1)">
       <use xlink:href="#DejaVuSans-34"/>
       <use x="63.623047" xlink:href="#DejaVuSans-30"/>
      </g>
     </g>
    </g>
    <g id="xtick_4">
     <g id="line2d_4">
      <g>
       <use style="stroke:#000000;stroke-width:0.8;" x="845.603306" xlink:href="#m508b3ae35f" y="1260"/>
      </g>
     </g>
     <g id="text_4">
      <!-- 60 -->
      <defs>
       <path d="M 33.015625 40.375 
Q 26.375 40.375 22.484375 35.828125 
Q 18.609375 31.296875 18.609375 23.390625 
Q 18.609375 15.53125 22.484375 10.953125 
Q 26.375 6.390625 33.015625 6.390625 
Q 39.65625 6.390625 43.53125 10.953125 
Q 47.40625 15.53125 47.40625 23.390625 
Q 47.40625 31.296875 43.53125 35.828125 
Q 39.65625 40.375 33.015625 40.375 
M 52.59375 71.296875 
L 52.59375 62.3125 
Q 48.875 64.0625 45.09375 64.984375 
Q 41.3125 65.921875 37.59375 65.921875 
Q 27.828125 65.921875 22.671875 59.328125 
Q 17.53125 52.734375 16.796875 39.40625 
Q 19.671875 43.65625 24.015625 45.921875 
Q 28.375 48.1875 33.59375 48.1875 
Q 44.578125 48.1875 50.953125 41.515625 
Q 57.328125 34.859375 57.328125 23.390625 
Q 57.328125 12.15625 50.6875 5.359375 
Q 44.046875 -1.421875 33.015625 -1.421875 
Q 20.359375 -1.421875 13.671875 8.265625 
Q 6.984375 17.96875 6.984375 36.375 
Q 6.984375 53.65625 15.1875 63.9375 
Q 23.390625 74.21875 37.203125 74.21875 
Q 40.921875 74.21875 44.703125 73.484375 
Q 48.484375 72.75 52.59375 71.296875 
" id="DejaVuSans-36"/>
      </defs>
      <g transform="translate(839.240806 1274.598438)scale(0.1 -0.1)">
       <use xlink:href="#DejaVuSans-36"/>
       <use x="63.623047" xlink:href="#DejaVuSans-30"/>
      </g>
     </g>
    </g>
    <g id="xtick_5">
     <g id="line2d_5">
      <g>
       <use style="stroke:#000000;stroke-width:0.8;" x="1050.561983" xlink:href="#m508b3ae35f" y="1260"/>
      </g>
     </g>
     <g id="text_5">
      <!-- 80 -->
      <defs>
       <path d="M 31.78125 34.625 
Q 24.75 34.625 20.71875 30.859375 
Q 16.703125 27.09375 16.703125 20.515625 
Q 16.703125 13.921875 20.71875 10.15625 
Q 24.75 6.390625 31.78125 6.390625 
Q 38.8125 6.390625 42.859375 10.171875 
Q 46.921875 13.96875 46.921875 20.515625 
Q 46.921875 27.09375 42.890625 30.859375 
Q 38.875 34.625 31.78125 34.625 
M 21.921875 38.8125 
Q 15.578125 40.375 12.03125 44.71875 
Q 8.5 49.078125 8.5 55.328125 
Q 8.5 64.0625 14.71875 69.140625 
Q 20.953125 74.21875 31.78125 74.21875 
Q 42.671875 74.21875 48.875 69.140625 
Q 55.078125 64.0625 55.078125 55.328125 
Q 55.078125 49.078125 51.53125 44.71875 
Q 48 40.375 41.703125 38.8125 
Q 48.828125 37.15625 52.796875 32.3125 
Q 56.78125 27.484375 56.78125 20.515625 
Q 56.78125 9.90625 50.3125 4.234375 
Q 43.84375 -1.421875 31.78125 -1.421875 
Q 19.734375 -1.421875 13.25 4.234375 
Q 6.78125 9.90625 6.78125 20.515625 
Q 6.78125 27.484375 10.78125 32.3125 
Q 14.796875 37.15625 21.921875 38.8125 
M 18.3125 54.390625 
Q 18.3125 48.734375 21.84375 45.5625 
Q 25.390625 42.390625 31.78125 42.390625 
Q 38.140625 42.390625 41.71875 45.5625 
Q 45.3125 48.734375 45.3125 54.390625 
Q 45.3125 60.0625 41.71875 63.234375 
Q 38.140625 66.40625 31.78125 66.40625 
Q 25.390625 66.40625 21.84375 63.234375 
Q 18.3125 60.0625 18.3125 54.390625 
" id="DejaVuSans-38"/>
      </defs>
      <g transform="translate(1044.199483 1274.598438)scale(0.1 -0.1)">
       <use xlink:href="#DejaVuSans-38"/>
       <use x="63.623047" xlink:href="#DejaVuSans-30"/>
      </g>
     </g>
    </g>
    <g id="xtick_6">
     <g id="line2d_6">
      <g>
       <use style="stroke:#000000;stroke-width:0.8;" x="1255.520661" xlink:href="#m508b3ae35f" y="1260"/>
      </g>
     </g>
     <g id="text_6">
      <!-- 100 -->
      <defs>
       <path d="M 12.40625 8.296875 
L 28.515625 8.296875 
L 28.515625 63.921875 
L 10.984375 60.40625 
L 10.984375 69.390625 
L 28.421875 72.90625 
L 38.28125 72.90625 
L 38.28125 8.296875 
L 54.390625 8.296875 
L 54.390625 0 
L 12.40625 0 
z
" id="DejaVuSans-31"/>
      </defs>
      <g transform="translate(1245.976911 1274.598438)scale(0.1 -0.1)">
       <use xlink:href="#DejaVuSans-31"/>
       <use x="63.623047" xlink:href="#DejaVuSans-30"/>
       <use x="127.246094" xlink:href="#DejaVuSans-30"/>
      </g>
     </g>
    </g>
   </g>
   <g id="matplotlib.axis_2">
    <g id="ytick_1">
     <g id="line2d_7">
      <defs>
       <path d="M 0 0 
L -3.5 0 
" id="m4a428d0745" style="stroke:#000000;stroke-width:0.8;"/>
      </defs>
      <g>
       <use style="stroke:#000000;stroke-width:0.8;" x="180" xlink:href="#m4a428d0745" y="1182.449429"/>
      </g>
     </g>
     <g id="text_7">
      <!-- 1.00 -->
      <defs>
       <path d="M 10.6875 12.40625 
L 21 12.40625 
L 21 0 
L 10.6875 0 
z
" id="DejaVuSans-2e"/>
      </defs>
      <g transform="translate(150.734375 1186.248647)scale(0.1 -0.1)">
       <use xlink:href="#DejaVuSans-31"/>
       <use x="63.623047" xlink:href="#DejaVuSans-2e"/>
       <use x="95.410156" xlink:href="#DejaVuSans-30"/>
       <use x="159.033203" xlink:href="#DejaVuSans-30"/>
      </g>
     </g>
    </g>
    <g id="ytick_2">
     <g id="line2d_8">
      <g>
       <use style="stroke:#000000;stroke-width:0.8;" x="180" xlink:href="#m4a428d0745" y="1048.316954"/>
      </g>
     </g>
     <g id="text_8">
      <!-- 1.01 -->
      <g transform="translate(150.734375 1052.116172)scale(0.1 -0.1)">
       <use xlink:href="#DejaVuSans-31"/>
       <use x="63.623047" xlink:href="#DejaVuSans-2e"/>
       <use x="95.410156" xlink:href="#DejaVuSans-30"/>
       <use x="159.033203" xlink:href="#DejaVuSans-31"/>
      </g>
     </g>
    </g>
    <g id="ytick_3">
     <g id="line2d_9">
      <g>
       <use style="stroke:#000000;stroke-width:0.8;" x="180" xlink:href="#m4a428d0745" y="914.184479"/>
      </g>
     </g>
     <g id="text_9">
      <!-- 1.02 -->
      <g transform="translate(150.734375 917.983697)scale(0.1 -0.1)">
       <use xlink:href="#DejaVuSans-31"/>
       <use x="63.623047" xlink:href="#DejaVuSans-2e"/>
       <use x="95.410156" xlink:href="#DejaVuSans-30"/>
       <use x="159.033203" xlink:href="#DejaVuSans-32"/>
      </g>
     </g>
    </g>
    <g id="ytick_4">
     <g id="line2d_10">
      <g>
       <use style="stroke:#000000;stroke-width:0.8;" x="180" xlink:href="#m4a428d0745" y="780.052004"/>
      </g>
     </g>
     <g id="text_10">
      <!-- 1.03 -->
      <defs>
       <path d="M 40.578125 39.3125 
Q 47.65625 37.796875 51.625 33 
Q 55.609375 28.21875 55.609375 21.1875 
Q 55.609375 10.40625 48.1875 4.484375 
Q 40.765625 -1.421875 27.09375 -1.421875 
Q 22.515625 -1.421875 17.65625 -0.515625 
Q 12.796875 0.390625 7.625 2.203125 
L 7.625 11.71875 
Q 11.71875 9.328125 16.59375 8.109375 
Q 21.484375 6.890625 26.8125 6.890625 
Q 36.078125 6.890625 40.9375 10.546875 
Q 45.796875 14.203125 45.796875 21.1875 
Q 45.796875 27.640625 41.28125 31.265625 
Q 36.765625 34.90625 28.71875 34.90625 
L 20.21875 34.90625 
L 20.21875 43.015625 
L 29.109375 43.015625 
Q 36.375 43.015625 40.234375 45.921875 
Q 44.09375 48.828125 44.09375 54.296875 
Q 44.09375 59.90625 40.109375 62.90625 
Q 36.140625 65.921875 28.71875 65.921875 
Q 24.65625 65.921875 20.015625 65.03125 
Q 15.375 64.15625 9.8125 62.3125 
L 9.8125 71.09375 
Q 15.4375 72.65625 20.34375 73.4375 
Q 25.25 74.21875 29.59375 74.21875 
Q 40.828125 74.21875 47.359375 69.109375 
Q 53.90625 64.015625 53.90625 55.328125 
Q 53.90625 49.265625 50.4375 45.09375 
Q 46.96875 40.921875 40.578125 39.3125 
" id="DejaVuSans-33"/>
      </defs>
      <g transform="translate(150.734375 783.851222)scale(0.1 -0.1)">
       <use xlink:href="#DejaVuSans-31"/>
       <use x="63.623047" xlink:href="#DejaVuSans-2e"/>
       <use x="95.410156" xlink:href="#DejaVuSans-30"/>
       <use x="159.033203" xlink:href="#DejaVuSans-33"/>
      </g>
     </g>
    </g>
    <g id="ytick_5">
     <g id="line2d_11">
      <g>
       <use style="stroke:#000000;stroke-width:0.8;" x="180" xlink:href="#m4a428d0745" y="645.919529"/>
      </g>
     </g>
     <g id="text_11">
      <!-- 1.04 -->
      <g transform="translate(150.734375 649.718748)scale(0.1 -0.1)">
       <use xlink:href="#DejaVuSans-31"/>
       <use x="63.623047" xlink:href="#DejaVuSans-2e"/>
       <use x="95.410156" xlink:href="#DejaVuSans-30"/>
       <use x="159.033203" xlink:href="#DejaVuSans-34"/>
      </g>
     </g>
    </g>
    <g id="ytick_6">
     <g id="line2d_12">
      <g>
       <use style="stroke:#000000;stroke-width:0.8;" x="180" xlink:href="#m4a428d0745" y="511.787054"/>
      </g>
     </g>
     <g id="text_12">
      <!-- 1.05 -->
      <defs>
       <path d="M 10.796875 72.90625 
L 49.515625 72.90625 
L 49.515625 64.59375 
L 19.828125 64.59375 
L 19.828125 46.734375 
Q 21.96875 47.46875 24.109375 47.828125 
Q 26.265625 48.1875 28.421875 48.1875 
Q 40.625 48.1875 47.75 41.5 
Q 54.890625 34.8125 54.890625 23.390625 
Q 54.890625 11.625 47.5625 5.09375 
Q 40.234375 -1.421875 26.90625 -1.421875 
Q 22.3125 -1.421875 17.546875 -0.640625 
Q 12.796875 0.140625 7.71875 1.703125 
L 7.71875 11.625 
Q 12.109375 9.234375 16.796875 8.0625 
Q 21.484375 6.890625 26.703125 6.890625 
Q 35.15625 6.890625 40.078125 11.328125 
Q 45.015625 15.765625 45.015625 23.390625 
Q 45.015625 31 40.078125 35.4375 
Q 35.15625 39.890625 26.703125 39.890625 
Q 22.75 39.890625 18.8125 39.015625 
Q 14.890625 38.140625 10.796875 36.28125 
z
" id="DejaVuSans-35"/>
      </defs>
      <g transform="translate(150.734375 515.586273)scale(0.1 -0.1)">
       <use xlink:href="#DejaVuSans-31"/>
       <use x="63.623047" xlink:href="#DejaVuSans-2e"/>
       <use x="95.410156" xlink:href="#DejaVuSans-30"/>
       <use x="159.033203" xlink:href="#DejaVuSans-35"/>
      </g>
     </g>
    </g>
    <g id="ytick_7">
     <g id="line2d_13">
      <g>
       <use style="stroke:#000000;stroke-width:0.8;" x="180" xlink:href="#m4a428d0745" y="377.654579"/>
      </g>
     </g>
     <g id="text_13">
      <!-- 1.06 -->
      <g transform="translate(150.734375 381.453798)scale(0.1 -0.1)">
       <use xlink:href="#DejaVuSans-31"/>
       <use x="63.623047" xlink:href="#DejaVuSans-2e"/>
       <use x="95.410156" xlink:href="#DejaVuSans-30"/>
       <use x="159.033203" xlink:href="#DejaVuSans-36"/>
      </g>
     </g>
    </g>
    <g id="ytick_8">
     <g id="line2d_14">
      <g>
       <use style="stroke:#000000;stroke-width:0.8;" x="180" xlink:href="#m4a428d0745" y="243.522104"/>
      </g>
     </g>
     <g id="text_14">
      <!-- 1.07 -->
      <defs>
       <path d="M 8.203125 72.90625 
L 55.078125 72.90625 
L 55.078125 68.703125 
L 28.609375 0 
L 18.3125 0 
L 43.21875 64.59375 
L 8.203125 64.59375 
z
" id="DejaVuSans-37"/>
      </defs>
      <g transform="translate(150.734375 247.321323)scale(0.1 -0.1)">
       <use xlink:href="#DejaVuSans-31"/>
       <use x="63.623047" xlink:href="#DejaVuSans-2e"/>
       <use x="95.410156" xlink:href="#DejaVuSans-30"/>
       <use x="159.033203" xlink:href="#DejaVuSans-37"/>
      </g>
     </g>
    </g>
   </g>
   <g id="line2d_15">
    <path clip-path="url(#pe7e1e84278)" d="M 230.727273 274.036952 
L 240.975207 520.098092 
L 251.22314 744.211537 
L 261.471074 837.152176 
L 271.719008 863.185174 
L 281.966942 873.178224 
L 292.214876 879.311583 
L 302.46281 884.003466 
L 312.710744 888.032029 
L 322.958678 891.825524 
L 333.206612 895.685217 
L 343.454545 899.851577 
L 353.702479 904.566428 
L 363.950413 910.087801 
L 374.198347 916.693995 
L 384.446281 924.747067 
L 394.694215 934.648252 
L 404.942149 946.883896 
L 415.190083 961.949802 
L 425.438017 980.295837 
L 435.68595 1002.09898 
L 445.933884 1027.041753 
L 456.181818 1054.017721 
L 466.429752 1081.138241 
L 476.677686 1106.17288 
L 486.92562 1127.326211 
L 497.173554 1143.872768 
L 507.421488 1156.16245 
L 517.669421 1165.116613 
L 527.917355 1171.748475 
L 538.165289 1176.845647 
L 548.413223 1180.932301 
L 558.661157 1184.331316 
L 568.909091 1187.223721 
L 579.157025 1189.724348 
L 589.404959 1191.900744 
L 599.652893 1193.809651 
L 609.900826 1195.484841 
L 620.14876 1196.94658 
L 630.396694 1198.234044 
L 640.644628 1199.358043 
L 650.892562 1200.346946 
L 661.140496 1201.214262 
L 671.38843 1201.977554 
L 681.636364 1202.653034 
L 691.884298 1203.247457 
L 702.132231 1203.775682 
L 712.380165 1204.245816 
L 722.628099 1204.670018 
L 732.876033 1205.048286 
L 743.123967 1205.390079 
L 753.371901 1205.7008 
L 763.619835 1205.985852 
L 773.867769 1206.245237 
L 784.115702 1206.484357 
L 794.363636 1206.707265 
L 804.61157 1206.912611 
L 814.859504 1207.104447 
L 825.107438 1207.284125 
L 835.355372 1207.457048 
L 845.603306 1207.613759 
L 855.85124 1207.766418 
L 866.099174 1207.908268 
L 876.347107 1208.046066 
L 886.595041 1208.173057 
L 896.842975 1208.298696 
L 907.090909 1208.414878 
L 917.338843 1208.528359 
L 927.586777 1208.636436 
L 937.834711 1208.74046 
L 948.082645 1208.840431 
L 958.330579 1208.934998 
L 968.578512 1209.028214 
L 978.826446 1209.118729 
L 989.07438 1209.201137 
L 999.322314 1209.283546 
L 1009.570248 1209.361901 
L 1019.818182 1209.440257 
L 1030.066116 1209.51456 
L 1040.31405 1209.582108 
L 1050.561983 1209.651007 
L 1060.809917 1209.717204 
L 1071.057851 1209.780699 
L 1081.305785 1209.844194 
L 1091.553719 1209.903636 
L 1101.801653 1209.957675 
L 1112.049587 1210.014415 
L 1122.297521 1210.068453 
L 1132.545455 1210.11979 
L 1142.793388 1210.169775 
L 1153.041322 1210.217059 
L 1163.289256 1210.26029 
L 1173.53719 1210.308924 
L 1183.785124 1210.350804 
L 1194.033058 1210.391333 
L 1204.280992 1210.430511 
L 1214.528926 1210.471039 
L 1224.77686 1210.507515 
L 1235.024793 1210.54264 
L 1245.272727 1210.581818 
" style="fill:none;stroke:#1f77b4;stroke-linecap:square;stroke-width:1.5;"/>
   </g>
   <g id="line2d_16">
    <path clip-path="url(#pe7e1e84278)" d="M 230.727273 222.218182 
L 240.975207 413.704593 
L 251.22314 650.527869 
L 261.471074 802.373064 
L 271.719008 859.602428 
L 281.966942 876.373245 
L 292.214876 881.886512 
L 302.46281 884.708668 
L 312.710744 886.843184 
L 322.958678 888.788566 
L 333.206612 890.70693 
L 343.454545 892.673927 
L 353.702479 894.755757 
L 363.950413 896.999701 
L 374.198347 899.455746 
L 384.446281 902.152262 
L 394.694215 905.135182 
L 404.942149 908.43963 
L 415.190083 912.09938 
L 425.438017 916.15226 
L 435.68595 920.636096 
L 445.933884 925.577907 
L 456.181818 931.018223 
L 466.429752 936.986764 
L 476.677686 943.518655 
L 486.92562 950.650373 
L 497.173554 958.418392 
L 507.421488 966.84568 
L 517.669421 975.957905 
L 527.917355 985.752365 
L 538.165289 996.219602 
L 548.413223 1007.323142 
L 558.661157 1018.985979 
L 568.909091 1031.109493 
L 579.157025 1043.545079 
L 589.404959 1056.123867 
L 599.652893 1068.65267 
L 609.900826 1080.926141 
L 620.14876 1092.741636 
L 630.396694 1103.92083 
L 640.644628 1114.323221 
L 650.892562 1123.844787 
L 661.140496 1132.431488 
L 671.38843 1140.080623 
L 681.636364 1146.820562 
L 691.884298 1152.69994 
L 702.132231 1157.799814 
L 712.380165 1162.201241 
L 722.628099 1165.992035 
L 732.876033 1169.247848 
L 743.123967 1172.053792 
L 753.371901 1174.474712 
L 763.619835 1176.575455 
L 773.867769 1178.400602 
L 784.115702 1180.006893 
L 794.363636 1181.415944 
L 804.61157 1182.672337 
L 814.859504 1183.799038 
L 825.107438 1184.813608 
L 835.355372 1185.741718 
L 845.603306 1186.595525 
L 855.85124 1187.379081 
L 866.099174 1188.112653 
L 876.347107 1188.79894 
L 886.595041 1189.447401 
L 896.842975 1190.059386 
L 907.090909 1190.648404 
L 917.338843 1191.206351 
L 927.586777 1191.746735 
L 937.834711 1192.268205 
L 948.082645 1192.774815 
L 958.330579 1193.265214 
L 968.578512 1193.746156 
L 978.826446 1194.210886 
L 989.07438 1194.666159 
L 999.322314 1195.113327 
L 1009.570248 1195.551038 
L 1019.818182 1195.981994 
L 1030.066116 1196.402143 
L 1040.31405 1196.818238 
L 1050.561983 1197.224877 
L 1060.809917 1197.628814 
L 1071.057851 1198.020593 
L 1081.305785 1198.405616 
L 1091.553719 1198.79064 
L 1101.801653 1199.162154 
L 1112.049587 1199.533668 
L 1122.297521 1199.895725 
L 1132.545455 1200.252379 
L 1142.793388 1200.602277 
L 1153.041322 1200.941368 
L 1163.289256 1201.277757 
L 1173.53719 1201.607391 
L 1183.785124 1201.931622 
L 1194.033058 1202.246395 
L 1204.280992 1202.557116 
L 1214.528926 1202.859731 
L 1224.77686 1203.155591 
L 1235.024793 1203.444697 
L 1245.272727 1203.725697 
" style="fill:none;stroke:#ff7f0e;stroke-linecap:square;stroke-width:1.5;"/>
   </g>
   <g id="patch_3">
    <path d="M 180 1260 
L 180 172.8 
" style="fill:none;stroke:#000000;stroke-linecap:square;stroke-linejoin:miter;stroke-width:0.8;"/>
   </g>
   <g id="patch_4">
    <path d="M 1296 1260 
L 1296 172.8 
" style="fill:none;stroke:#000000;stroke-linecap:square;stroke-linejoin:miter;stroke-width:0.8;"/>
   </g>
   <g id="patch_5">
    <path d="M 180 1260 
L 1296 1260 
" style="fill:none;stroke:#000000;stroke-linecap:square;stroke-linejoin:miter;stroke-width:0.8;"/>
   </g>
   <g id="patch_6">
    <path d="M 180 172.8 
L 1296 172.8 
" style="fill:none;stroke:#000000;stroke-linecap:square;stroke-linejoin:miter;stroke-width:0.8;"/>
   </g>
  </g>
 </g>
 <defs>
  <clipPath id="pe7e1e84278">
   <rect height="1087.2" width="1116" x="180" y="172.8"/>
  </clipPath>
 </defs>
</svg>
